<?xml version="1.0" standalone="no"?>
<!DOCTYPE svg PUBLIC "-//W3C//DTD SVG 20010904//EN"
 "http://www.w3.org/TR/2001/REC-SVG-20010904/DTD/svg10.dtd">
<svg version="1.0" xmlns="http://www.w3.org/2000/svg"
 width="4320.000000pt" height="2469.000000pt" viewBox="0 0 4320.000000 2469.000000"
 preserveAspectRatio="xMidYMid meet">
<metadata>
Created by potrace 1.16, written by Peter Selinger 2001-2019
</metadata>
<g transform="translate(0.000000,2469.000000) scale(0.100000,-0.100000)"
fill="#000000" stroke="none">
<path d="M0 12345 l0 -12345 21600 0 21600 0 0 12345 0 12345 -21600 0 -21600
0 0 -12345z m43020 8170 l0 -3995 -175 0 -174 0 -3 98 -3 97 -899 3 c-826 2
-901 1 -918 -14 -15 -14 -18 -32 -18 -101 l0 -83 -40 0 -39 0 -3 98 -3 97
-899 3 c-826 2 -901 1 -918 -14 -15 -14 -18 -32 -18 -101 l0 -83 -40 0 -39 0
-3 98 -3 97 -899 3 c-826 2 -901 1 -918 -14 -15 -14 -18 -32 -18 -101 l0 -83
-40 0 -39 0 -3 98 -3 97 -899 3 c-826 2 -901 1 -918 -14 -15 -14 -18 -32 -18
-101 l0 -83 -40 0 -39 0 -3 98 -3 97 -899 3 c-826 2 -901 1 -918 -14 -15 -14
-18 -32 -18 -101 l0 -83 -40 0 -39 0 -3 98 -3 97 -899 3 c-826 2 -901 1 -918
-14 -15 -14 -18 -32 -18 -101 l0 -83 -40 0 -39 0 -3 98 -3 97 -899 3 c-826 2
-901 1 -918 -14 -15 -14 -18 -32 -18 -101 l0 -83 -40 0 -39 0 -3 98 -3 97
-899 3 c-826 2 -901 1 -918 -14 -15 -14 -18 -32 -18 -101 l0 -83 -40 0 -39 0
-3 98 -3 97 -899 3 c-826 2 -901 1 -918 -14 -15 -14 -18 -32 -18 -101 l0 -83
-40 0 -39 0 -3 98 -3 97 -899 3 c-826 2 -901 1 -918 -14 -15 -14 -18 -32 -18
-101 l0 -83 -40 0 -39 0 -3 98 -3 97 -899 3 c-826 2 -901 1 -918 -14 -15 -14
-18 -32 -18 -101 l0 -83 -40 0 -39 0 -3 98 -3 97 -899 3 c-826 2 -901 1 -918
-14 -15 -14 -18 -32 -18 -101 l0 -83 -40 0 -39 0 -3 98 -3 97 -899 3 c-826 2
-901 1 -918 -14 -15 -14 -18 -32 -18 -101 l0 -83 -40 0 -39 0 -3 98 -3 97
-899 3 c-826 2 -901 1 -918 -14 -15 -14 -18 -32 -18 -101 l0 -83 -40 0 -39 0
-3 98 -3 97 -899 3 c-826 2 -901 1 -918 -14 -15 -14 -18 -32 -18 -101 l0 -83
-40 0 -39 0 -3 98 -3 97 -899 3 c-826 2 -901 1 -918 -14 -15 -14 -18 -32 -18
-101 l0 -83 -40 0 -39 0 -3 98 -3 97 -899 3 c-826 2 -901 1 -918 -14 -15 -14
-18 -32 -18 -101 l0 -83 -40 0 -39 0 -3 98 -3 97 -899 3 c-826 2 -901 1 -918
-14 -15 -14 -18 -32 -18 -101 l0 -83 -40 0 -39 0 -3 98 -3 97 -899 3 c-826 2
-901 1 -918 -14 -15 -14 -18 -32 -18 -101 l0 -83 -40 0 -39 0 -3 98 -3 97
-899 3 c-826 2 -901 1 -918 -14 -15 -14 -18 -32 -18 -101 l0 -83 -40 0 -39 0
-3 98 -3 97 -899 3 c-826 2 -901 1 -918 -14 -15 -14 -18 -32 -18 -101 l0 -83
-40 0 -39 0 -3 98 -3 97 -899 3 c-826 2 -901 1 -918 -14 -15 -14 -18 -32 -18
-101 l0 -83 -165 0 -165 0 0 3995 0 3995 21420 0 21420 0 0 -3995z m-40780
-4000 l0 -95 150 0 150 0 0 95 0 95 810 0 810 0 0 -95 0 -95 150 0 150 0 0 95
0 95 810 0 810 0 0 -95 0 -95 150 0 150 0 0 95 0 95 810 0 810 0 0 -95 0 -95
150 0 150 0 0 95 0 95 810 0 810 0 0 -95 0 -95 150 0 150 0 0 95 0 95 810 0
810 0 0 -95 0 -95 150 0 150 0 0 95 0 95 810 0 810 0 0 -95 0 -95 150 0 150 0
0 95 0 95 810 0 810 0 0 -95 0 -95 150 0 150 0 0 95 0 95 810 0 810 0 0 -95 0
-95 150 0 150 0 0 95 0 95 810 0 810 0 0 -95 0 -95 150 0 150 0 0 95 0 95 810
0 810 0 0 -95 0 -95 150 0 150 0 0 95 0 95 810 0 810 0 0 -95 0 -95 150 0 150
0 0 95 0 95 810 0 810 0 0 -95 0 -95 150 0 150 0 0 95 0 95 810 0 810 0 0 -95
0 -95 150 0 150 0 0 95 0 95 810 0 810 0 0 -95 0 -95 150 0 150 0 0 95 0 95
810 0 810 0 0 -95 0 -95 150 0 150 0 0 95 0 95 810 0 810 0 0 -95 0 -95 150 0
150 0 0 95 0 95 810 0 810 0 0 -95 0 -95 150 0 150 0 0 95 0 95 810 0 810 0 0
-95 0 -95 150 0 150 0 0 95 0 95 810 0 810 0 0 -95 0 -95 150 0 150 0 0 95 0
95 810 0 810 0 0 -95 0 -95 150 0 150 0 0 95 0 95 810 0 810 0 0 -95 0 -95
230 0 230 0 0 -4065 0 -4065 -216 0 c-173 0 -218 -3 -230 -14 -10 -10 -14 -39
-14 -95 l0 -81 -810 0 -810 0 0 95 0 95 -136 0 c-104 0 -139 -3 -150 -14 -10
-10 -14 -39 -14 -95 l0 -81 -810 0 -810 0 0 95 0 95 -136 0 c-104 0 -139 -3
-150 -14 -10 -10 -14 -39 -14 -95 l0 -81 -810 0 -810 0 0 95 0 95 -136 0
c-104 0 -139 -3 -150 -14 -10 -10 -14 -39 -14 -95 l0 -81 -810 0 -810 0 0 95
0 95 -136 0 c-104 0 -139 -3 -150 -14 -10 -10 -14 -39 -14 -95 l0 -81 -810 0
-810 0 0 95 0 95 -136 0 c-104 0 -139 -3 -150 -14 -10 -10 -14 -39 -14 -95 l0
-81 -810 0 -810 0 0 95 0 95 -136 0 c-104 0 -139 -3 -150 -14 -10 -10 -14 -39
-14 -95 l0 -81 -810 0 -810 0 0 95 0 95 -136 0 c-104 0 -139 -3 -150 -14 -10
-10 -14 -39 -14 -95 l0 -81 -810 0 -810 0 0 95 0 95 -136 0 c-104 0 -139 -3
-150 -14 -10 -10 -14 -39 -14 -95 l0 -81 -810 0 -810 0 0 95 0 95 -136 0
c-104 0 -139 -3 -150 -14 -10 -10 -14 -39 -14 -95 l0 -81 -810 0 -810 0 0 95
0 95 -136 0 c-104 0 -139 -3 -150 -14 -10 -10 -14 -39 -14 -95 l0 -81 -810 0
-810 0 0 95 0 95 -136 0 c-104 0 -139 -3 -150 -14 -10 -10 -14 -39 -14 -95 l0
-81 -810 0 -810 0 0 95 0 95 -136 0 c-104 0 -139 -3 -150 -14 -10 -10 -14 -39
-14 -95 l0 -81 -810 0 -810 0 0 95 0 95 -136 0 c-104 0 -139 -3 -150 -14 -10
-10 -14 -39 -14 -95 l0 -81 -810 0 -810 0 0 95 0 95 -136 0 c-104 0 -139 -3
-150 -14 -10 -10 -14 -39 -14 -95 l0 -81 -810 0 -810 0 0 95 0 95 -136 0
c-104 0 -139 -3 -150 -14 -10 -10 -14 -39 -14 -95 l0 -81 -810 0 -810 0 0 95
0 95 -136 0 c-104 0 -139 -3 -150 -14 -10 -10 -14 -39 -14 -95 l0 -81 -810 0
-810 0 0 95 0 95 -136 0 c-104 0 -139 -3 -150 -14 -10 -10 -14 -39 -14 -95 l0
-81 -810 0 -810 0 0 95 0 95 -136 0 c-104 0 -139 -3 -150 -14 -10 -10 -14 -39
-14 -95 l0 -81 -810 0 -810 0 0 95 0 95 -136 0 c-104 0 -139 -3 -150 -14 -10
-10 -14 -39 -14 -95 l0 -81 -810 0 -810 0 0 95 0 95 -136 0 c-104 0 -139 -3
-150 -14 -10 -10 -14 -39 -14 -95 l0 -81 -810 0 -810 0 0 95 0 95 -136 0
c-104 0 -139 -3 -150 -14 -10 -10 -14 -39 -14 -95 l0 -81 -810 0 -810 0 0 95
0 95 -220 0 -220 0 0 4065 0 4065 220 0 220 0 0 95 0 95 810 0 810 0 0 -95z
m-1728 -8422 l3 -98 915 0 915 0 3 98 3 97 39 0 39 0 3 -97 3 -98 915 0 915 0
3 98 3 97 39 0 39 0 3 -97 3 -98 915 0 915 0 3 98 3 97 39 0 39 0 3 -97 3 -98
915 0 915 0 3 98 3 97 39 0 39 0 3 -97 3 -98 915 0 915 0 3 98 3 97 39 0 39 0
3 -97 3 -98 915 0 915 0 3 98 3 97 39 0 39 0 3 -97 3 -98 915 0 915 0 3 98 3
97 39 0 39 0 3 -97 3 -98 915 0 915 0 3 98 3 97 39 0 39 0 3 -97 3 -98 915 0
915 0 3 98 3 97 39 0 39 0 3 -97 3 -98 915 0 915 0 3 98 3 97 39 0 39 0 3 -97
3 -98 915 0 915 0 3 98 3 97 39 0 39 0 3 -97 3 -98 915 0 915 0 3 98 3 97 39
0 39 0 3 -97 3 -98 915 0 915 0 3 98 3 97 39 0 39 0 3 -97 3 -98 915 0 915 0
3 98 3 97 39 0 39 0 3 -97 3 -98 915 0 915 0 3 98 3 97 39 0 39 0 3 -97 3 -98
915 0 915 0 3 98 3 97 39 0 39 0 3 -97 3 -98 915 0 915 0 3 98 3 97 39 0 39 0
3 -97 3 -98 915 0 915 0 3 98 3 97 39 0 39 0 3 -97 3 -98 915 0 915 0 3 98 3
97 39 0 39 0 3 -97 3 -98 915 0 915 0 3 98 3 97 39 0 39 0 3 -97 3 -98 915 0
915 0 3 98 3 97 39 0 39 0 3 -97 3 -98 915 0 915 0 3 98 3 97 174 0 175 0 0
-4005 0 -4005 -21420 0 -21420 0 0 4005 0 4005 165 0 164 0 3 -97z M527 17852
c-14 -15 -17 -42 -17 -150 l0 -132 1303 2 1302 3 0 145 0 145 -1286 3 c-1236
2 -1286 1 -1302 -16z m2483 -132 l0 -40 -1195 0 -1195 0 0 40 0 40 1195 0
1195 0 0 -40z M3217 17852 c-15 -16 -17 -44 -17 -195 l0 -177 -371 0 c-308 0
-373 -2 -385 -14 -12 -12 -14 -71 -14 -340 l0 -326 343 2 342 3 0 145 0 145
-192 3 -193 2 0 40 0 40 235 0 235 0 0 -190 0 -190 535 0 535 0 -2 533 -3 532
-133 3 c-106 2 -136 0 -147 -12 -13 -12 -15 -74 -15 -385 l0 -371 -45 0 -45 0
0 385 0 385 -133 0 c-117 0 -136 -2 -150 -18 -15 -17 -17 -58 -17 -385 l0
-367 -40 0 -40 0 -2 383 -3 382 -131 3 c-116 2 -132 1 -147 -16z m173 -477 l0
-385 150 0 150 0 0 385 0 385 45 0 45 0 0 -385 0 -386 148 3 147 3 3 383 2
382 40 0 40 0 0 -425 0 -425 -425 0 -425 0 0 190 0 190 -328 0 c-308 0 -330
-1 -346 -19 -14 -15 -16 -38 -14 -147 l3 -129 193 -3 192 -2 0 -40 0 -40 -235
0 -235 0 0 235 0 235 385 0 385 0 0 190 0 190 40 0 40 0 0 -385z M4367 17852
c-14 -15 -17 -42 -17 -150 l0 -132 1303 2 1302 3 0 145 0 145 -1286 3 c-1236
2 -1286 1 -1302 -16z m2483 -132 l0 -40 -1195 0 -1195 0 0 40 0 40 1195 0
1195 0 0 -40z M7057 17852 c-15 -16 -17 -44 -17 -195 l0 -177 -371 0 c-308 0
-373 -2 -385 -14 -12 -12 -14 -71 -14 -340 l0 -326 343 2 342 3 0 145 0 145
-192 3 -193 2 0 40 0 40 235 0 235 0 0 -190 0 -190 535 0 535 0 -2 533 -3 532
-133 3 c-106 2 -136 0 -147 -12 -13 -12 -15 -74 -15 -385 l0 -371 -45 0 -45 0
0 385 0 385 -133 0 c-117 0 -136 -2 -150 -18 -15 -17 -17 -58 -17 -385 l0
-367 -40 0 -40 0 -2 383 -3 382 -131 3 c-116 2 -132 1 -147 -16z m173 -477 l0
-385 150 0 150 0 0 385 0 385 45 0 45 0 0 -385 0 -386 148 3 147 3 3 383 2
382 40 0 40 0 0 -425 0 -425 -425 0 -425 0 0 190 0 190 -328 0 c-308 0 -330
-1 -346 -19 -14 -15 -16 -38 -14 -147 l3 -129 193 -3 192 -2 0 -40 0 -40 -235
0 -235 0 0 235 0 235 385 0 385 0 0 190 0 190 40 0 40 0 0 -385z M8207 17852
c-14 -15 -17 -42 -17 -150 l0 -132 1303 2 1302 3 0 145 0 145 -1286 3 c-1236
2 -1286 1 -1302 -16z m2483 -132 l0 -40 -1195 0 -1195 0 0 40 0 40 1195 0
1195 0 0 -40z M10897 17852 c-15 -16 -17 -44 -17 -195 l0 -177 -371 0 c-308 0
-373 -2 -385 -14 -12 -12 -14 -71 -14 -340 l0 -326 343 2 342 3 0 145 0 145
-192 3 -193 2 0 40 0 40 235 0 235 0 0 -190 0 -190 535 0 535 0 -2 533 -3 532
-133 3 c-106 2 -136 0 -147 -12 -13 -12 -15 -74 -15 -385 l0 -371 -45 0 -45 0
0 385 0 385 -133 0 c-117 0 -136 -2 -150 -18 -15 -17 -17 -58 -17 -385 l0
-367 -40 0 -40 0 -2 383 -3 382 -131 3 c-116 2 -132 1 -147 -16z m173 -477 l0
-385 150 0 150 0 0 385 0 385 45 0 45 0 0 -385 0 -386 148 3 147 3 3 383 2
382 40 0 40 0 0 -425 0 -425 -425 0 -425 0 0 190 0 190 -328 0 c-308 0 -330
-1 -346 -19 -14 -15 -16 -38 -14 -147 l3 -129 193 -3 192 -2 0 -40 0 -40 -235
0 -235 0 0 235 0 235 385 0 385 0 0 190 0 190 40 0 40 0 0 -385z M12047 17852
c-14 -15 -17 -42 -17 -150 l0 -132 1303 2 1302 3 0 145 0 145 -1286 3 c-1236
2 -1286 1 -1302 -16z m2483 -132 l0 -40 -1195 0 -1195 0 0 40 0 40 1195 0
1195 0 0 -40z M14737 17852 c-15 -16 -17 -44 -17 -195 l0 -177 -371 0 c-308 0
-373 -2 -385 -14 -12 -12 -14 -71 -14 -340 l0 -326 343 2 342 3 0 145 0 145
-192 3 -193 2 0 40 0 40 235 0 235 0 0 -190 0 -190 535 0 535 0 -2 533 -3 532
-133 3 c-106 2 -136 0 -147 -12 -13 -12 -15 -74 -15 -385 l0 -371 -45 0 -45 0
0 385 0 385 -133 0 c-117 0 -136 -2 -150 -18 -15 -17 -17 -58 -17 -385 l0
-367 -40 0 -40 0 -2 383 -3 382 -131 3 c-116 2 -132 1 -147 -16z m173 -477 l0
-385 150 0 150 0 0 385 0 385 45 0 45 0 0 -385 0 -386 148 3 147 3 3 383 2
382 40 0 40 0 0 -425 0 -425 -425 0 -425 0 0 190 0 190 -328 0 c-308 0 -330
-1 -346 -19 -14 -15 -16 -38 -14 -147 l3 -129 193 -3 192 -2 0 -40 0 -40 -235
0 -235 0 0 235 0 235 385 0 385 0 0 190 0 190 40 0 40 0 0 -385z M15887 17852
c-14 -15 -17 -42 -17 -150 l0 -132 1303 2 1302 3 0 145 0 145 -1286 3 c-1236
2 -1286 1 -1302 -16z m2483 -132 l0 -40 -1195 0 -1195 0 0 40 0 40 1195 0
1195 0 0 -40z M18577 17852 c-15 -16 -17 -44 -17 -195 l0 -177 -371 0 c-308 0
-373 -2 -385 -14 -12 -12 -14 -71 -14 -340 l0 -326 343 2 342 3 0 145 0 145
-192 3 -193 2 0 40 0 40 235 0 235 0 0 -190 0 -190 535 0 535 0 -2 533 -3 532
-133 3 c-106 2 -136 0 -147 -12 -13 -12 -15 -74 -15 -385 l0 -371 -45 0 -45 0
0 385 0 385 -133 0 c-117 0 -136 -2 -150 -18 -15 -17 -17 -58 -17 -385 l0
-367 -40 0 -40 0 -2 383 -3 382 -131 3 c-116 2 -132 1 -147 -16z m173 -477 l0
-385 150 0 150 0 0 385 0 385 45 0 45 0 0 -385 0 -386 148 3 147 3 3 383 2
382 40 0 40 0 0 -425 0 -425 -425 0 -425 0 0 190 0 190 -328 0 c-308 0 -330
-1 -346 -19 -14 -15 -16 -38 -14 -147 l3 -129 193 -3 192 -2 0 -40 0 -40 -235
0 -235 0 0 235 0 235 385 0 385 0 0 190 0 190 40 0 40 0 0 -385z M19727 17852
c-14 -15 -17 -42 -17 -150 l0 -132 1303 2 1302 3 0 145 0 145 -1286 3 c-1236
2 -1286 1 -1302 -16z m2483 -132 l0 -40 -1195 0 -1195 0 0 40 0 40 1195 0
1195 0 0 -40z M22417 17852 c-15 -16 -17 -44 -17 -195 l0 -177 -371 0 c-308 0
-373 -2 -385 -14 -12 -12 -14 -71 -14 -340 l0 -326 343 2 342 3 0 145 0 145
-192 3 -193 2 0 40 0 40 235 0 235 0 0 -190 0 -190 535 0 535 0 -2 533 -3 532
-133 3 c-106 2 -136 0 -147 -12 -13 -12 -15 -74 -15 -385 l0 -371 -45 0 -45 0
0 385 0 385 -133 0 c-117 0 -136 -2 -150 -18 -15 -17 -17 -58 -17 -385 l0
-367 -40 0 -40 0 -2 383 -3 382 -131 3 c-116 2 -132 1 -147 -16z m173 -477 l0
-385 150 0 150 0 0 385 0 385 45 0 45 0 0 -385 0 -386 148 3 147 3 3 383 2
382 40 0 40 0 0 -425 0 -425 -425 0 -425 0 0 190 0 190 -328 0 c-308 0 -330
-1 -346 -19 -14 -15 -16 -38 -14 -147 l3 -129 193 -3 192 -2 0 -40 0 -40 -235
0 -235 0 0 235 0 235 385 0 385 0 0 190 0 190 40 0 40 0 0 -385z M23567 17852
c-14 -15 -17 -42 -17 -150 l0 -132 1303 2 1302 3 0 145 0 145 -1286 3 c-1236
2 -1286 1 -1302 -16z m2483 -132 l0 -40 -1195 0 -1195 0 0 40 0 40 1195 0
1195 0 0 -40z M26257 17852 c-15 -16 -17 -44 -17 -195 l0 -177 -371 0 c-308 0
-373 -2 -385 -14 -12 -12 -14 -71 -14 -340 l0 -326 343 2 342 3 0 145 0 145
-192 3 -193 2 0 40 0 40 235 0 235 0 0 -190 0 -190 535 0 535 0 -2 533 -3 532
-133 3 c-106 2 -136 0 -147 -12 -13 -12 -15 -74 -15 -385 l0 -371 -45 0 -45 0
0 385 0 385 -133 0 c-117 0 -136 -2 -150 -18 -15 -17 -17 -58 -17 -385 l0
-367 -40 0 -40 0 -2 383 -3 382 -131 3 c-116 2 -132 1 -147 -16z m173 -477 l0
-385 150 0 150 0 0 385 0 385 45 0 45 0 0 -385 0 -386 148 3 147 3 3 383 2
382 40 0 40 0 0 -425 0 -425 -425 0 -425 0 0 190 0 190 -328 0 c-308 0 -330
-1 -346 -19 -14 -15 -16 -38 -14 -147 l3 -129 193 -3 192 -2 0 -40 0 -40 -235
0 -235 0 0 235 0 235 385 0 385 0 0 190 0 190 40 0 40 0 0 -385z M27407 17852
c-14 -15 -17 -42 -17 -150 l0 -132 1303 2 1302 3 0 145 0 145 -1286 3 c-1236
2 -1286 1 -1302 -16z m2483 -132 l0 -40 -1195 0 -1195 0 0 40 0 40 1195 0
1195 0 0 -40z M30097 17852 c-15 -16 -17 -44 -17 -195 l0 -177 -371 0 c-308 0
-373 -2 -385 -14 -12 -12 -14 -71 -14 -340 l0 -326 343 2 342 3 0 145 0 145
-192 3 -193 2 0 40 0 40 235 0 235 0 0 -190 0 -190 535 0 535 0 -2 533 -3 532
-133 3 c-106 2 -136 0 -147 -12 -13 -12 -15 -74 -15 -385 l0 -371 -45 0 -45 0
0 385 0 385 -133 0 c-117 0 -136 -2 -150 -18 -15 -17 -17 -58 -17 -385 l0
-367 -40 0 -40 0 -2 383 -3 382 -131 3 c-116 2 -132 1 -147 -16z m173 -477 l0
-385 150 0 150 0 0 385 0 385 45 0 45 0 0 -385 0 -386 148 3 147 3 3 383 2
382 40 0 40 0 0 -425 0 -425 -425 0 -425 0 0 190 0 190 -328 0 c-308 0 -330
-1 -346 -19 -14 -15 -16 -38 -14 -147 l3 -129 193 -3 192 -2 0 -40 0 -40 -235
0 -235 0 0 235 0 235 385 0 385 0 0 190 0 190 40 0 40 0 0 -385z M31247 17852
c-14 -15 -17 -42 -17 -150 l0 -132 1303 2 1302 3 0 145 0 145 -1286 3 c-1236
2 -1286 1 -1302 -16z m2483 -132 l0 -40 -1195 0 -1195 0 0 40 0 40 1195 0
1195 0 0 -40z M33937 17852 c-15 -16 -17 -44 -17 -195 l0 -177 -371 0 c-308 0
-373 -2 -385 -14 -12 -12 -14 -71 -14 -340 l0 -326 343 2 342 3 0 145 0 145
-192 3 -193 2 0 40 0 40 235 0 235 0 0 -190 0 -190 535 0 535 0 -2 533 -3 532
-133 3 c-106 2 -136 0 -147 -12 -13 -12 -15 -74 -15 -385 l0 -371 -45 0 -45 0
0 385 0 385 -133 0 c-117 0 -136 -2 -150 -18 -15 -17 -17 -58 -17 -385 l0
-367 -40 0 -40 0 -2 383 -3 382 -131 3 c-116 2 -132 1 -147 -16z m173 -477 l0
-385 150 0 150 0 0 385 0 385 45 0 45 0 0 -385 0 -386 148 3 147 3 3 383 2
382 40 0 40 0 0 -425 0 -425 -425 0 -425 0 0 190 0 190 -328 0 c-308 0 -330
-1 -346 -19 -14 -15 -16 -38 -14 -147 l3 -129 193 -3 192 -2 0 -40 0 -40 -235
0 -235 0 0 235 0 235 385 0 385 0 0 190 0 190 40 0 40 0 0 -385z M35087 17852
c-14 -15 -17 -42 -17 -150 l0 -132 1303 2 1302 3 0 145 0 145 -1286 3 c-1236
2 -1286 1 -1302 -16z m2483 -132 l0 -40 -1195 0 -1195 0 0 40 0 40 1195 0
1195 0 0 -40z M37777 17852 c-15 -16 -17 -44 -17 -195 l0 -177 -371 0 c-308 0
-373 -2 -385 -14 -12 -12 -14 -71 -14 -340 l0 -326 343 2 342 3 0 145 0 145
-192 3 -193 2 0 40 0 40 235 0 235 0 0 -190 0 -190 535 0 535 0 -2 533 -3 532
-133 3 c-106 2 -136 0 -147 -12 -13 -12 -15 -74 -15 -385 l0 -371 -45 0 -45 0
0 385 0 385 -133 0 c-117 0 -136 -2 -150 -18 -15 -17 -17 -58 -17 -385 l0
-367 -40 0 -40 0 -2 383 -3 382 -131 3 c-116 2 -132 1 -147 -16z m173 -477 l0
-385 150 0 150 0 0 385 0 385 45 0 45 0 0 -385 0 -386 148 3 147 3 3 383 2
382 40 0 40 0 0 -425 0 -425 -425 0 -425 0 0 190 0 190 -328 0 c-308 0 -330
-1 -346 -19 -14 -15 -16 -38 -14 -147 l3 -129 193 -3 192 -2 0 -40 0 -40 -235
0 -235 0 0 235 0 235 385 0 385 0 0 190 0 190 40 0 40 0 0 -385z M38927 17852
c-14 -15 -17 -42 -17 -150 l0 -132 1303 2 1302 3 0 145 0 145 -1286 3 c-1236
2 -1286 1 -1302 -16z m2483 -132 l0 -40 -1195 0 -1195 0 0 40 0 40 1195 0
1195 0 0 -40z M41617 17852 c-15 -16 -17 -44 -17 -195 l0 -177 -371 0 c-308 0
-373 -2 -385 -14 -12 -12 -14 -71 -14 -340 l0 -326 343 2 342 3 0 145 0 145
-192 3 -193 2 0 40 0 40 235 0 235 0 0 -190 0 -190 535 0 535 0 -2 533 -3 532
-133 3 c-106 2 -136 0 -147 -12 -13 -12 -15 -74 -15 -385 l0 -371 -45 0 -45 0
0 385 0 385 -133 0 c-117 0 -136 -2 -150 -18 -15 -17 -17 -58 -17 -385 l0
-367 -40 0 -40 0 -2 383 -3 382 -131 3 c-116 2 -132 1 -147 -16z m173 -477 l0
-385 150 0 150 0 0 385 0 385 45 0 45 0 0 -385 0 -386 148 3 147 3 3 383 2
382 40 0 40 0 0 -425 0 -425 -425 0 -425 0 0 190 0 190 -328 0 c-308 0 -330
-1 -346 -19 -14 -15 -16 -38 -14 -147 l3 -129 193 -3 192 -2 0 -40 0 -40 -235
0 -235 0 0 235 0 235 385 0 385 0 0 190 0 190 40 0 40 0 0 -385z M523 17465
c-10 -11 -13 -93 -13 -340 l0 -325 150 0 150 0 0 190 0 190 235 0 235 0 0
-190 0 -190 535 0 535 0 0 340 0 340 -331 0 c-276 0 -333 -2 -345 -15 -12 -11
-14 -41 -12 -147 l3 -133 193 -3 192 -2 0 -40 0 -40 -235 0 -235 0 0 190 0
190 -522 0 c-439 -1 -525 -3 -535 -15z m947 -280 l0 -195 343 2 342 3 0 145 0
145 -192 3 -193 2 0 45 0 45 235 0 235 0 0 -235 0 -235 -425 0 -425 0 0 190 0
190 -327 0 c-290 0 -328 -2 -345 -17 -16 -14 -18 -34 -18 -190 l0 -173 -40 0
-40 0 0 235 0 235 425 0 425 0 0 -195z M4363 17465 c-10 -11 -13 -93 -13 -340
l0 -325 150 0 150 0 0 190 0 190 235 0 235 0 0 -190 0 -190 535 0 535 0 0 340
0 340 -331 0 c-276 0 -333 -2 -345 -15 -12 -11 -14 -41 -12 -147 l3 -133 193
-3 192 -2 0 -40 0 -40 -235 0 -235 0 0 190 0 190 -522 0 c-439 -1 -525 -3
-535 -15z m947 -280 l0 -195 343 2 342 3 0 145 0 145 -192 3 -193 2 0 45 0 45
235 0 235 0 0 -235 0 -235 -425 0 -425 0 0 190 0 190 -327 0 c-290 0 -328 -2
-345 -17 -16 -14 -18 -34 -18 -190 l0 -173 -40 0 -40 0 0 235 0 235 425 0 425
0 0 -195z M8203 17465 c-10 -11 -13 -93 -13 -340 l0 -325 150 0 150 0 0 190 0
190 235 0 235 0 0 -190 0 -190 535 0 535 0 0 340 0 340 -331 0 c-276 0 -333
-2 -345 -15 -12 -11 -14 -41 -12 -147 l3 -133 193 -3 192 -2 0 -40 0 -40 -235
0 -235 0 0 190 0 190 -522 0 c-439 -1 -525 -3 -535 -15z m947 -280 l0 -195
343 2 342 3 0 145 0 145 -192 3 -193 2 0 45 0 45 235 0 235 0 0 -235 0 -235
-425 0 -425 0 0 190 0 190 -327 0 c-290 0 -328 -2 -345 -17 -16 -14 -18 -34
-18 -190 l0 -173 -40 0 -40 0 0 235 0 235 425 0 425 0 0 -195z M12043 17465
c-10 -11 -13 -93 -13 -340 l0 -325 150 0 150 0 0 190 0 190 235 0 235 0 0
-190 0 -190 535 0 535 0 0 340 0 340 -331 0 c-276 0 -333 -2 -345 -15 -12 -11
-14 -41 -12 -147 l3 -133 193 -3 192 -2 0 -40 0 -40 -235 0 -235 0 0 190 0
190 -522 0 c-439 -1 -525 -3 -535 -15z m947 -280 l0 -195 343 2 342 3 0 145 0
145 -192 3 -193 2 0 45 0 45 235 0 235 0 0 -235 0 -235 -425 0 -425 0 0 190 0
190 -327 0 c-290 0 -328 -2 -345 -17 -16 -14 -18 -34 -18 -190 l0 -173 -40 0
-40 0 0 235 0 235 425 0 425 0 0 -195z M15883 17465 c-10 -11 -13 -93 -13
-340 l0 -325 150 0 150 0 0 190 0 190 235 0 235 0 0 -190 0 -190 535 0 535 0
0 340 0 340 -331 0 c-276 0 -333 -2 -345 -15 -12 -11 -14 -41 -12 -147 l3
-133 193 -3 192 -2 0 -40 0 -40 -235 0 -235 0 0 190 0 190 -522 0 c-439 -1
-525 -3 -535 -15z m947 -280 l0 -195 343 2 342 3 0 145 0 145 -192 3 -193 2 0
45 0 45 235 0 235 0 0 -235 0 -235 -425 0 -425 0 0 190 0 190 -327 0 c-290 0
-328 -2 -345 -17 -16 -14 -18 -34 -18 -190 l0 -173 -40 0 -40 0 0 235 0 235
425 0 425 0 0 -195z M19723 17465 c-10 -11 -13 -93 -13 -340 l0 -325 150 0
150 0 0 190 0 190 235 0 235 0 0 -190 0 -190 535 0 535 0 0 340 0 340 -331 0
c-276 0 -333 -2 -345 -15 -12 -11 -14 -41 -12 -147 l3 -133 193 -3 192 -2 0
-40 0 -40 -235 0 -235 0 0 190 0 190 -522 0 c-439 -1 -525 -3 -535 -15z m947
-280 l0 -195 343 2 342 3 0 145 0 145 -192 3 -193 2 0 45 0 45 235 0 235 0 0
-235 0 -235 -425 0 -425 0 0 190 0 190 -327 0 c-290 0 -328 -2 -345 -17 -16
-14 -18 -34 -18 -190 l0 -173 -40 0 -40 0 0 235 0 235 425 0 425 0 0 -195z
M23563 17465 c-10 -11 -13 -93 -13 -340 l0 -325 150 0 150 0 0 190 0 190 235
0 235 0 0 -190 0 -190 535 0 535 0 0 340 0 340 -331 0 c-276 0 -333 -2 -345
-15 -12 -11 -14 -41 -12 -147 l3 -133 193 -3 192 -2 0 -40 0 -40 -235 0 -235
0 0 190 0 190 -522 0 c-439 -1 -525 -3 -535 -15z m947 -280 l0 -195 343 2 342
3 0 145 0 145 -192 3 -193 2 0 45 0 45 235 0 235 0 0 -235 0 -235 -425 0 -425
0 0 190 0 190 -327 0 c-290 0 -328 -2 -345 -17 -16 -14 -18 -34 -18 -190 l0
-173 -40 0 -40 0 0 235 0 235 425 0 425 0 0 -195z M27403 17465 c-10 -11 -13
-93 -13 -340 l0 -325 150 0 150 0 0 190 0 190 235 0 235 0 0 -190 0 -190 535
0 535 0 0 340 0 340 -331 0 c-276 0 -333 -2 -345 -15 -12 -11 -14 -41 -12
-147 l3 -133 193 -3 192 -2 0 -40 0 -40 -235 0 -235 0 0 190 0 190 -522 0
c-439 -1 -525 -3 -535 -15z m947 -280 l0 -195 343 2 342 3 0 145 0 145 -192 3
-193 2 0 45 0 45 235 0 235 0 0 -235 0 -235 -425 0 -425 0 0 190 0 190 -327 0
c-290 0 -328 -2 -345 -17 -16 -14 -18 -34 -18 -190 l0 -173 -40 0 -40 0 0 235
0 235 425 0 425 0 0 -195z M31243 17465 c-10 -11 -13 -93 -13 -340 l0 -325
150 0 150 0 0 190 0 190 235 0 235 0 0 -190 0 -190 535 0 535 0 0 340 0 340
-331 0 c-276 0 -333 -2 -345 -15 -12 -11 -14 -41 -12 -147 l3 -133 193 -3 192
-2 0 -40 0 -40 -235 0 -235 0 0 190 0 190 -522 0 c-439 -1 -525 -3 -535 -15z
m947 -280 l0 -195 343 2 342 3 0 145 0 145 -192 3 -193 2 0 45 0 45 235 0 235
0 0 -235 0 -235 -425 0 -425 0 0 190 0 190 -327 0 c-290 0 -328 -2 -345 -17
-16 -14 -18 -34 -18 -190 l0 -173 -40 0 -40 0 0 235 0 235 425 0 425 0 0 -195z
M35083 17465 c-10 -11 -13 -93 -13 -340 l0 -325 150 0 150 0 0 190 0 190 235
0 235 0 0 -190 0 -190 535 0 535 0 0 340 0 340 -331 0 c-276 0 -333 -2 -345
-15 -12 -11 -14 -41 -12 -147 l3 -133 193 -3 192 -2 0 -40 0 -40 -235 0 -235
0 0 190 0 190 -522 0 c-439 -1 -525 -3 -535 -15z m947 -280 l0 -195 343 2 342
3 0 145 0 145 -192 3 -193 2 0 45 0 45 235 0 235 0 0 -235 0 -235 -425 0 -425
0 0 190 0 190 -327 0 c-290 0 -328 -2 -345 -17 -16 -14 -18 -34 -18 -190 l0
-173 -40 0 -40 0 0 235 0 235 425 0 425 0 0 -195z M38923 17465 c-10 -11 -13
-93 -13 -340 l0 -325 150 0 150 0 0 190 0 190 235 0 235 0 0 -190 0 -190 535
0 535 0 0 340 0 340 -331 0 c-276 0 -333 -2 -345 -15 -12 -11 -14 -41 -12
-147 l3 -133 193 -3 192 -2 0 -40 0 -40 -235 0 -235 0 0 190 0 190 -522 0
c-439 -1 -525 -3 -535 -15z m947 -280 l0 -195 343 2 342 3 0 145 0 145 -192 3
-193 2 0 45 0 45 235 0 235 0 0 -235 0 -235 -425 0 -425 0 0 190 0 190 -327 0
c-290 0 -328 -2 -345 -17 -16 -14 -18 -34 -18 -190 l0 -173 -40 0 -40 0 0 235
0 235 425 0 425 0 0 -195z M913 17085 c-9 -10 -13 -56 -13 -150 l0 -136 148 3
147 3 0 145 0 145 -135 2 c-107 2 -138 0 -147 -12z m177 -135 l0 -40 -45 0
-45 0 0 40 0 40 45 0 45 0 0 -40z M4753 17085 c-9 -10 -13 -56 -13 -150 l0
-136 148 3 147 3 0 145 0 145 -135 2 c-107 2 -138 0 -147 -12z m177 -135 l0
-40 -45 0 -45 0 0 40 0 40 45 0 45 0 0 -40z M8593 17085 c-9 -10 -13 -56 -13
-150 l0 -136 148 3 147 3 0 145 0 145 -135 2 c-107 2 -138 0 -147 -12z m177
-135 l0 -40 -45 0 -45 0 0 40 0 40 45 0 45 0 0 -40z M12433 17085 c-9 -10 -13
-56 -13 -150 l0 -136 148 3 147 3 0 145 0 145 -135 2 c-107 2 -138 0 -147 -12z
m177 -135 l0 -40 -45 0 -45 0 0 40 0 40 45 0 45 0 0 -40z M16273 17085 c-9
-10 -13 -56 -13 -150 l0 -136 148 3 147 3 0 145 0 145 -135 2 c-107 2 -138 0
-147 -12z m177 -135 l0 -40 -45 0 -45 0 0 40 0 40 45 0 45 0 0 -40z M20113
17085 c-9 -10 -13 -56 -13 -150 l0 -136 148 3 147 3 0 145 0 145 -135 2 c-107
2 -138 0 -147 -12z m177 -135 l0 -40 -45 0 -45 0 0 40 0 40 45 0 45 0 0 -40z
M23953 17085 c-9 -10 -13 -56 -13 -150 l0 -136 148 3 147 3 0 145 0 145 -135
2 c-107 2 -138 0 -147 -12z m177 -135 l0 -40 -45 0 -45 0 0 40 0 40 45 0 45 0
0 -40z M27793 17085 c-9 -10 -13 -56 -13 -150 l0 -136 148 3 147 3 0 145 0
145 -135 2 c-107 2 -138 0 -147 -12z m177 -135 l0 -40 -45 0 -45 0 0 40 0 40
45 0 45 0 0 -40z M31633 17085 c-9 -10 -13 -56 -13 -150 l0 -136 148 3 147 3
0 145 0 145 -135 2 c-107 2 -138 0 -147 -12z m177 -135 l0 -40 -45 0 -45 0 0
40 0 40 45 0 45 0 0 -40z M35473 17085 c-9 -10 -13 -56 -13 -150 l0 -136 148
3 147 3 0 145 0 145 -135 2 c-107 2 -138 0 -147 -12z m177 -135 l0 -40 -45 0
-45 0 0 40 0 40 45 0 45 0 0 -40z M39313 17085 c-9 -10 -13 -56 -13 -150 l0
-136 148 3 147 3 0 145 0 145 -135 2 c-107 2 -138 0 -147 -12z m177 -135 l0
-40 -45 0 -45 0 0 40 0 40 45 0 45 0 0 -40z M20768 15373 c-26 -31 -38 -97
-38 -208 0 -126 15 -187 68 -274 44 -73 114 -133 202 -174 60 -28 75 -31 202
-35 108 -3 147 -1 184 12 26 9 49 14 51 12 8 -7 -114 -103 -173 -136 -33 -18
-67 -40 -76 -48 -17 -14 -18 -71 -18 -936 0 -899 1 -944 39 -1906 22 -542 43
-1030 46 -1084 l6 -99 -53 44 c-29 24 -111 100 -182 169 -430 419 -730 959
-851 1532 -64 302 -84 547 -66 778 42 513 192 985 447 1396 58 95 64 109 64
159 l0 55 -44 0 c-44 0 -47 -2 -183 -137 -469 -466 -742 -1019 -828 -1678 -24
-180 -24 -571 -1 -750 79 -598 329 -1143 718 -1560 189 -203 351 -341 553
-471 l106 -68 -78 -23 c-245 -72 -548 -115 -807 -114 -201 0 -206 -2 -206 -68
l0 -40 68 -20 c215 -64 411 -97 672 -112 201 -11 402 -6 575 17 61 7 113 14
117 14 3 0 10 -19 16 -42 6 -30 43 -90 123 -200 l114 -157 55 0 55 0 114 157
c80 110 117 170 123 200 6 23 13 42 16 42 4 0 57 -7 117 -14 403 -52 874 -16
1248 95 l67 20 0 54 0 54 -182 0 c-191 -1 -362 15 -548 52 -102 20 -327 76
-343 86 -4 3 45 40 110 82 164 107 296 217 444 367 151 154 175 181 265 301
274 365 459 812 529 1275 39 252 38 662 -1 923 -89 602 -370 1154 -806 1587
-123 121 -132 128 -169 128 -51 0 -69 -18 -69 -69 0 -32 13 -61 64 -145 255
-411 405 -880 447 -1396 19 -232 -4 -505 -66 -797 -119 -564 -420 -1111 -832
-1514 -108 -106 -242 -223 -248 -217 -2 2 16 489 41 1083 44 1079 44 1081 44
2016 l0 936 -77 46 c-88 52 -185 133 -143 120 14 -4 93 -8 175 -8 146 1 152 1
215 31 126 60 218 164 255 289 19 67 20 272 1 335 -13 43 -15 45 -55 48 -50 4
-60 -5 -85 -78 -44 -131 -136 -211 -283 -246 -65 -15 -132 -2 -212 41 -49 27
-151 125 -151 146 0 5 -21 9 -48 9 -40 0 -50 -4 -67 -27 -69 -94 -144 -146
-242 -169 -137 -32 -312 67 -388 218 -19 39 -35 79 -35 89 0 16 -8 19 -43 19
-30 0 -49 -6 -59 -17z m1552 -314 c-27 -93 -106 -182 -204 -228 -90 -44 -164
-50 -250 -21 -70 23 -174 92 -202 135 -14 21 -24 25 -65 25 -43 0 -51 -4 -71
-31 -35 -47 -122 -105 -195 -130 -84 -28 -159 -21 -246 20 -102 49 -173 122
-213 217 l-15 35 53 -40 c75 -56 140 -81 242 -92 164 -19 298 15 396 99 l40
34 40 -34 c67 -58 141 -88 242 -99 168 -19 312 18 413 105 22 20 41 35 42 36
1 0 -2 -14 -7 -31z m-650 -472 c43 -40 113 -93 154 -117 l76 -45 0 -880 c0
-872 0 -890 -45 -1985 -25 -608 -45 -1138 -45 -1177 l0 -73 54 0 c53 0 56 2
158 84 816 656 1232 1633 1154 2706 -16 217 -40 375 -82 549 -29 117 -103 344
-140 430 -22 51 -22 54 -4 31 59 -71 207 -306 264 -418 183 -362 276 -694 307
-1099 27 -342 -45 -780 -187 -1141 -99 -252 -262 -532 -430 -738 -93 -116
-291 -314 -397 -400 -87 -70 -293 -209 -392 -264 -80 -45 -85 -51 -85 -103 l0
-45 78 -26 c198 -65 407 -112 615 -137 54 -6 96 -13 95 -14 -2 -2 -75 -11
-163 -20 -193 -21 -395 -16 -595 16 -266 42 -280 39 -280 -43 0 -38 -10 -57
-88 -165 -48 -67 -90 -123 -94 -123 -3 0 -50 60 -102 133 -90 124 -96 135 -96
181 l0 48 -62 -5 c-35 -3 -126 -15 -203 -27 -107 -18 -185 -23 -330 -24 -163
-1 -434 19 -422 30 2 2 53 11 113 19 205 27 382 67 577 131 l77 26 0 56 0 57
-63 34 c-95 52 -302 191 -395 266 -113 91 -325 305 -424 429 -349 433 -558
964 -609 1549 -30 341 50 808 202 1174 89 214 271 529 374 648 l26 30 -17 -40
c-220 -542 -294 -1075 -228 -1650 94 -814 498 -1543 1141 -2060 103 -83 106
-85 159 -85 l54 0 0 73 c0 39 -20 569 -45 1177 -45 1096 -45 1112 -45 1985 l0
880 74 44 c41 24 109 76 152 117 44 40 81 73 82 74 2 0 39 -33 82 -73z M20150
14665 c-259 -78 -535 -221 -752 -387 -123 -95 -320 -288 -421 -413 -392 -485
-571 -1087 -517 -1740 39 -466 199 -886 481 -1257 81 -106 281 -311 384 -395
44 -36 127 -96 185 -134 99 -65 108 -69 162 -69 l58 0 0 50 c0 47 -6 60 -74
158 -350 507 -541 1110 -540 1702 2 724 294 1465 795 2017 94 103 261 261 357
336 l62 49 0 54 0 54 -52 -1 c-29 -1 -87 -11 -128 -24z m-276 -317 c-606 -619
-918 -1475 -864 -2368 27 -459 121 -823 315 -1217 44 -90 79 -163 78 -163 -14
0 -180 162 -250 242 -330 382 -514 791 -578 1283 -70 543 128 1190 508 1660
144 178 333 350 529 482 84 56 355 203 374 203 4 0 -47 -55 -112 -122z M22863
14675 c-7 -8 -13 -32 -13 -53 0 -37 5 -44 73 -98 478 -386 843 -931 1016
-1519 143 -482 164 -935 66 -1417 -83 -409 -243 -784 -481 -1130 -62 -90 -74
-114 -74 -148 l0 -40 58 0 c54 0 63 4 162 69 150 99 248 181 385 322 186 191
306 359 421 589 196 389 276 808 246 1282 -15 244 -42 384 -114 608 -191 591
-627 1096 -1191 1377 -263 132 -515 203 -554 158z m704 -408 c577 -383 955
-1000 1039 -1697 63 -526 -106 -1122 -450 -1590 -85 -115 -220 -263 -314 -343
l-91 -77 74 142 c187 363 292 714 336 1123 15 145 15 537 0 695 -38 390 -143
748 -324 1103 -137 271 -312 519 -511 726 l-111 115 127 -66 c70 -37 171 -95
225 -131z M523 7895 c-9 -10 -13 -56 -13 -150 l0 -135 1303 2 1302 3 0 145 0
145 -1290 2 c-1105 2 -1292 0 -1302 -12z m2487 -135 l0 -40 -1195 0 -1195 0 0
40 0 40 1195 0 1195 0 0 -40z M3213 7895 c-9 -10 -13 -63 -13 -190 l0 -175
-368 0 c-346 0 -370 -1 -386 -18 -15 -17 -16 -52 -14 -343 l3 -324 340 0 340
0 0 145 0 145 -192 3 -193 2 0 45 0 45 235 0 235 0 2 -192 3 -193 530 0 530 0
3 533 2 532 -136 0 c-104 0 -139 -3 -150 -14 -12 -12 -14 -77 -14 -385 l0
-371 -45 0 -45 0 0 385 0 385 -133 0 c-117 0 -136 -2 -150 -18 -15 -17 -17
-58 -17 -385 l0 -367 -40 0 -40 0 0 385 0 385 -137 0 c-106 -1 -141 -4 -150
-15z m179 -477 l3 -383 148 -3 147 -3 0 386 0 385 45 0 45 0 0 -385 0 -386
148 3 147 3 3 383 2 382 40 0 40 0 0 -425 0 -425 -425 0 -425 0 0 190 0 190
-331 0 c-276 0 -333 -2 -345 -15 -12 -11 -14 -41 -12 -147 l3 -133 193 -3 192
-2 0 -40 0 -40 -235 0 -235 0 0 235 0 235 385 0 385 0 0 190 0 190 40 0 40 0
2 -382z M4363 7895 c-9 -10 -13 -56 -13 -150 l0 -135 1303 2 1302 3 0 145 0
145 -1290 2 c-1105 2 -1292 0 -1302 -12z m2487 -135 l0 -40 -1195 0 -1195 0 0
40 0 40 1195 0 1195 0 0 -40z M7053 7895 c-9 -10 -13 -63 -13 -190 l0 -175
-368 0 c-346 0 -370 -1 -386 -18 -15 -17 -16 -52 -14 -343 l3 -324 340 0 340
0 0 145 0 145 -192 3 -193 2 0 45 0 45 235 0 235 0 2 -192 3 -193 530 0 530 0
3 533 2 532 -136 0 c-104 0 -139 -3 -150 -14 -12 -12 -14 -77 -14 -385 l0
-371 -45 0 -45 0 0 385 0 385 -133 0 c-117 0 -136 -2 -150 -18 -15 -17 -17
-58 -17 -385 l0 -367 -40 0 -40 0 0 385 0 385 -137 0 c-106 -1 -141 -4 -150
-15z m179 -477 l3 -383 148 -3 147 -3 0 386 0 385 45 0 45 0 0 -385 0 -386
148 3 147 3 3 383 2 382 40 0 40 0 0 -425 0 -425 -425 0 -425 0 0 190 0 190
-331 0 c-276 0 -333 -2 -345 -15 -12 -11 -14 -41 -12 -147 l3 -133 193 -3 192
-2 0 -40 0 -40 -235 0 -235 0 0 235 0 235 385 0 385 0 0 190 0 190 40 0 40 0
2 -382z M8203 7895 c-9 -10 -13 -56 -13 -150 l0 -135 1303 2 1302 3 0 145 0
145 -1290 2 c-1105 2 -1292 0 -1302 -12z m2487 -135 l0 -40 -1195 0 -1195 0 0
40 0 40 1195 0 1195 0 0 -40z M10893 7895 c-9 -10 -13 -63 -13 -190 l0 -175
-368 0 c-346 0 -370 -1 -386 -18 -15 -17 -16 -52 -14 -343 l3 -324 340 0 340
0 0 145 0 145 -192 3 -193 2 0 45 0 45 235 0 235 0 2 -192 3 -193 530 0 530 0
3 533 2 532 -136 0 c-104 0 -139 -3 -150 -14 -12 -12 -14 -77 -14 -385 l0
-371 -45 0 -45 0 0 385 0 385 -133 0 c-117 0 -136 -2 -150 -18 -15 -17 -17
-58 -17 -385 l0 -367 -40 0 -40 0 0 385 0 385 -137 0 c-106 -1 -141 -4 -150
-15z m179 -477 l3 -383 148 -3 147 -3 0 386 0 385 45 0 45 0 0 -385 0 -386
148 3 147 3 3 383 2 382 40 0 40 0 0 -425 0 -425 -425 0 -425 0 0 190 0 190
-331 0 c-276 0 -333 -2 -345 -15 -12 -11 -14 -41 -12 -147 l3 -133 193 -3 192
-2 0 -40 0 -40 -235 0 -235 0 0 235 0 235 385 0 385 0 0 190 0 190 40 0 40 0
2 -382z M12043 7895 c-9 -10 -13 -56 -13 -150 l0 -135 1303 2 1302 3 0 145 0
145 -1290 2 c-1105 2 -1292 0 -1302 -12z m2487 -135 l0 -40 -1195 0 -1195 0 0
40 0 40 1195 0 1195 0 0 -40z M14733 7895 c-9 -10 -13 -63 -13 -190 l0 -175
-368 0 c-346 0 -370 -1 -386 -18 -15 -17 -16 -52 -14 -343 l3 -324 340 0 340
0 0 145 0 145 -192 3 -193 2 0 45 0 45 235 0 235 0 2 -192 3 -193 530 0 530 0
3 533 2 532 -136 0 c-104 0 -139 -3 -150 -14 -12 -12 -14 -77 -14 -385 l0
-371 -45 0 -45 0 0 385 0 385 -133 0 c-117 0 -136 -2 -150 -18 -15 -17 -17
-58 -17 -385 l0 -367 -40 0 -40 0 0 385 0 385 -137 0 c-106 -1 -141 -4 -150
-15z m179 -477 l3 -383 148 -3 147 -3 0 386 0 385 45 0 45 0 0 -385 0 -386
148 3 147 3 3 383 2 382 40 0 40 0 0 -425 0 -425 -425 0 -425 0 0 190 0 190
-331 0 c-276 0 -333 -2 -345 -15 -12 -11 -14 -41 -12 -147 l3 -133 193 -3 192
-2 0 -40 0 -40 -235 0 -235 0 0 235 0 235 385 0 385 0 0 190 0 190 40 0 40 0
2 -382z M15883 7895 c-9 -10 -13 -56 -13 -150 l0 -135 1303 2 1302 3 0 145 0
145 -1290 2 c-1105 2 -1292 0 -1302 -12z m2487 -135 l0 -40 -1195 0 -1195 0 0
40 0 40 1195 0 1195 0 0 -40z M18573 7895 c-9 -10 -13 -63 -13 -190 l0 -175
-368 0 c-346 0 -370 -1 -386 -18 -15 -17 -16 -52 -14 -343 l3 -324 340 0 340
0 0 145 0 145 -192 3 -193 2 0 45 0 45 235 0 235 0 2 -192 3 -193 530 0 530 0
3 533 2 532 -136 0 c-104 0 -139 -3 -150 -14 -12 -12 -14 -77 -14 -385 l0
-371 -45 0 -45 0 0 385 0 385 -133 0 c-117 0 -136 -2 -150 -18 -15 -17 -17
-58 -17 -385 l0 -367 -40 0 -40 0 0 385 0 385 -137 0 c-106 -1 -141 -4 -150
-15z m179 -477 l3 -383 148 -3 147 -3 0 386 0 385 45 0 45 0 0 -385 0 -386
148 3 147 3 3 383 2 382 40 0 40 0 0 -425 0 -425 -425 0 -425 0 0 190 0 190
-331 0 c-276 0 -333 -2 -345 -15 -12 -11 -14 -41 -12 -147 l3 -133 193 -3 192
-2 0 -40 0 -40 -235 0 -235 0 0 235 0 235 385 0 385 0 0 190 0 190 40 0 40 0
2 -382z M19723 7895 c-9 -10 -13 -56 -13 -150 l0 -135 1303 2 1302 3 0 145 0
145 -1290 2 c-1105 2 -1292 0 -1302 -12z m2487 -135 l0 -40 -1195 0 -1195 0 0
40 0 40 1195 0 1195 0 0 -40z M22413 7895 c-9 -10 -13 -63 -13 -190 l0 -175
-368 0 c-346 0 -370 -1 -386 -18 -15 -17 -16 -52 -14 -343 l3 -324 340 0 340
0 0 145 0 145 -192 3 -193 2 0 45 0 45 235 0 235 0 2 -192 3 -193 530 0 530 0
3 533 2 532 -136 0 c-104 0 -139 -3 -150 -14 -12 -12 -14 -77 -14 -385 l0
-371 -45 0 -45 0 0 385 0 385 -133 0 c-117 0 -136 -2 -150 -18 -15 -17 -17
-58 -17 -385 l0 -367 -40 0 -40 0 0 385 0 385 -137 0 c-106 -1 -141 -4 -150
-15z m179 -477 l3 -383 148 -3 147 -3 0 386 0 385 45 0 45 0 0 -385 0 -386
148 3 147 3 3 383 2 382 40 0 40 0 0 -425 0 -425 -425 0 -425 0 0 190 0 190
-331 0 c-276 0 -333 -2 -345 -15 -12 -11 -14 -41 -12 -147 l3 -133 193 -3 192
-2 0 -40 0 -40 -235 0 -235 0 0 235 0 235 385 0 385 0 0 190 0 190 40 0 40 0
2 -382z M23563 7895 c-9 -10 -13 -56 -13 -150 l0 -135 1303 2 1302 3 0 145 0
145 -1290 2 c-1105 2 -1292 0 -1302 -12z m2487 -135 l0 -40 -1195 0 -1195 0 0
40 0 40 1195 0 1195 0 0 -40z M26253 7895 c-9 -10 -13 -63 -13 -190 l0 -175
-368 0 c-346 0 -370 -1 -386 -18 -15 -17 -16 -52 -14 -343 l3 -324 340 0 340
0 0 145 0 145 -192 3 -193 2 0 45 0 45 235 0 235 0 2 -192 3 -193 530 0 530 0
3 533 2 532 -136 0 c-104 0 -139 -3 -150 -14 -12 -12 -14 -77 -14 -385 l0
-371 -45 0 -45 0 0 385 0 385 -133 0 c-117 0 -136 -2 -150 -18 -15 -17 -17
-58 -17 -385 l0 -367 -40 0 -40 0 0 385 0 385 -137 0 c-106 -1 -141 -4 -150
-15z m179 -477 l3 -383 148 -3 147 -3 0 386 0 385 45 0 45 0 0 -385 0 -386
148 3 147 3 3 383 2 382 40 0 40 0 0 -425 0 -425 -425 0 -425 0 0 190 0 190
-331 0 c-276 0 -333 -2 -345 -15 -12 -11 -14 -41 -12 -147 l3 -133 193 -3 192
-2 0 -40 0 -40 -235 0 -235 0 0 235 0 235 385 0 385 0 0 190 0 190 40 0 40 0
2 -382z M27403 7895 c-9 -10 -13 -56 -13 -150 l0 -135 1303 2 1302 3 0 145 0
145 -1290 2 c-1105 2 -1292 0 -1302 -12z m2487 -135 l0 -40 -1195 0 -1195 0 0
40 0 40 1195 0 1195 0 0 -40z M30093 7895 c-9 -10 -13 -63 -13 -190 l0 -175
-368 0 c-346 0 -370 -1 -386 -18 -15 -17 -16 -52 -14 -343 l3 -324 340 0 340
0 0 145 0 145 -192 3 -193 2 0 45 0 45 235 0 235 0 2 -192 3 -193 530 0 530 0
3 533 2 532 -136 0 c-104 0 -139 -3 -150 -14 -12 -12 -14 -77 -14 -385 l0
-371 -45 0 -45 0 0 385 0 385 -133 0 c-117 0 -136 -2 -150 -18 -15 -17 -17
-58 -17 -385 l0 -367 -40 0 -40 0 0 385 0 385 -137 0 c-106 -1 -141 -4 -150
-15z m179 -477 l3 -383 148 -3 147 -3 0 386 0 385 45 0 45 0 0 -385 0 -386
148 3 147 3 3 383 2 382 40 0 40 0 0 -425 0 -425 -425 0 -425 0 0 190 0 190
-331 0 c-276 0 -333 -2 -345 -15 -12 -11 -14 -41 -12 -147 l3 -133 193 -3 192
-2 0 -40 0 -40 -235 0 -235 0 0 235 0 235 385 0 385 0 0 190 0 190 40 0 40 0
2 -382z M31243 7895 c-9 -10 -13 -56 -13 -150 l0 -135 1303 2 1302 3 0 145 0
145 -1290 2 c-1105 2 -1292 0 -1302 -12z m2487 -135 l0 -40 -1195 0 -1195 0 0
40 0 40 1195 0 1195 0 0 -40z M33933 7895 c-9 -10 -13 -63 -13 -190 l0 -175
-368 0 c-346 0 -370 -1 -386 -18 -15 -17 -16 -52 -14 -343 l3 -324 340 0 340
0 0 145 0 145 -192 3 -193 2 0 45 0 45 235 0 235 0 2 -192 3 -193 530 0 530 0
3 533 2 532 -136 0 c-104 0 -139 -3 -150 -14 -12 -12 -14 -77 -14 -385 l0
-371 -45 0 -45 0 0 385 0 385 -133 0 c-117 0 -136 -2 -150 -18 -15 -17 -17
-58 -17 -385 l0 -367 -40 0 -40 0 0 385 0 385 -137 0 c-106 -1 -141 -4 -150
-15z m179 -477 l3 -383 148 -3 147 -3 0 386 0 385 45 0 45 0 0 -385 0 -386
148 3 147 3 3 383 2 382 40 0 40 0 0 -425 0 -425 -425 0 -425 0 0 190 0 190
-331 0 c-276 0 -333 -2 -345 -15 -12 -11 -14 -41 -12 -147 l3 -133 193 -3 192
-2 0 -40 0 -40 -235 0 -235 0 0 235 0 235 385 0 385 0 0 190 0 190 40 0 40 0
2 -382z M35083 7895 c-9 -10 -13 -56 -13 -150 l0 -135 1303 2 1302 3 0 145 0
145 -1290 2 c-1105 2 -1292 0 -1302 -12z m2487 -135 l0 -40 -1195 0 -1195 0 0
40 0 40 1195 0 1195 0 0 -40z M37773 7895 c-9 -10 -13 -63 -13 -190 l0 -175
-368 0 c-346 0 -370 -1 -386 -18 -15 -17 -16 -52 -14 -343 l3 -324 340 0 340
0 0 145 0 145 -192 3 -193 2 0 45 0 45 235 0 235 0 2 -192 3 -193 530 0 530 0
3 533 2 532 -136 0 c-104 0 -139 -3 -150 -14 -12 -12 -14 -77 -14 -385 l0
-371 -45 0 -45 0 0 385 0 385 -133 0 c-117 0 -136 -2 -150 -18 -15 -17 -17
-58 -17 -385 l0 -367 -40 0 -40 0 0 385 0 385 -137 0 c-106 -1 -141 -4 -150
-15z m179 -477 l3 -383 148 -3 147 -3 0 386 0 385 45 0 45 0 0 -385 0 -386
148 3 147 3 3 383 2 382 40 0 40 0 0 -425 0 -425 -425 0 -425 0 0 190 0 190
-331 0 c-276 0 -333 -2 -345 -15 -12 -11 -14 -41 -12 -147 l3 -133 193 -3 192
-2 0 -40 0 -40 -235 0 -235 0 0 235 0 235 385 0 385 0 0 190 0 190 40 0 40 0
2 -382z M38923 7895 c-9 -10 -13 -56 -13 -150 l0 -135 1303 2 1302 3 0 145 0
145 -1290 2 c-1105 2 -1292 0 -1302 -12z m2487 -135 l0 -40 -1195 0 -1195 0 0
40 0 40 1195 0 1195 0 0 -40z M41613 7895 c-9 -10 -13 -63 -13 -190 l0 -175
-368 0 c-346 0 -370 -1 -386 -18 -15 -17 -16 -52 -14 -343 l3 -324 340 0 340
0 0 145 0 145 -192 3 -193 2 0 45 0 45 235 0 235 0 2 -192 3 -193 530 0 530 0
3 533 2 532 -136 0 c-104 0 -139 -3 -150 -14 -12 -12 -14 -77 -14 -385 l0
-371 -45 0 -45 0 0 385 0 385 -133 0 c-117 0 -136 -2 -150 -18 -15 -17 -17
-58 -17 -385 l0 -367 -40 0 -40 0 0 385 0 385 -137 0 c-106 -1 -141 -4 -150
-15z m179 -477 l3 -383 148 -3 147 -3 0 386 0 385 45 0 45 0 0 -385 0 -386
148 3 147 3 3 383 2 382 40 0 40 0 0 -425 0 -425 -425 0 -425 0 0 190 0 190
-331 0 c-276 0 -333 -2 -345 -15 -12 -11 -14 -41 -12 -147 l3 -133 193 -3 192
-2 0 -40 0 -40 -235 0 -235 0 0 235 0 235 385 0 385 0 0 190 0 190 40 0 40 0
2 -382z M526 7512 c-15 -17 -16 -51 -14 -343 l3 -324 148 -3 147 -3 0 196 0
195 235 0 235 0 2 -192 3 -193 530 0 530 0 0 340 0 340 -324 3 c-291 2 -326 1
-343 -14 -16 -15 -18 -34 -18 -151 l0 -133 195 0 195 0 0 -45 0 -45 -235 0
-235 0 -2 193 -3 192 -516 3 c-491 2 -517 1 -533 -16z m946 -284 l3 -193 340
0 340 0 3 148 3 147 -196 0 -195 0 0 45 0 45 235 0 235 0 0 -235 0 -235 -425
0 -425 0 0 190 0 190 -331 0 c-273 0 -333 -2 -345 -14 -11 -12 -14 -51 -14
-190 l0 -176 -40 0 -40 0 0 235 0 235 425 0 425 0 2 -192z M4366 7512 c-15
-17 -16 -51 -14 -343 l3 -324 148 -3 147 -3 0 196 0 195 235 0 235 0 2 -192 3
-193 530 0 530 0 0 340 0 340 -324 3 c-291 2 -326 1 -343 -14 -16 -15 -18 -34
-18 -151 l0 -133 195 0 195 0 0 -45 0 -45 -235 0 -235 0 -2 193 -3 192 -516 3
c-491 2 -517 1 -533 -16z m946 -284 l3 -193 340 0 340 0 3 148 3 147 -196 0
-195 0 0 45 0 45 235 0 235 0 0 -235 0 -235 -425 0 -425 0 0 190 0 190 -331 0
c-273 0 -333 -2 -345 -14 -11 -12 -14 -51 -14 -190 l0 -176 -40 0 -40 0 0 235
0 235 425 0 425 0 2 -192z M8206 7512 c-15 -17 -16 -51 -14 -343 l3 -324 148
-3 147 -3 0 196 0 195 235 0 235 0 2 -192 3 -193 530 0 530 0 0 340 0 340
-324 3 c-291 2 -326 1 -343 -14 -16 -15 -18 -34 -18 -151 l0 -133 195 0 195 0
0 -45 0 -45 -235 0 -235 0 -2 193 -3 192 -516 3 c-491 2 -517 1 -533 -16z
m946 -284 l3 -193 340 0 340 0 3 148 3 147 -196 0 -195 0 0 45 0 45 235 0 235
0 0 -235 0 -235 -425 0 -425 0 0 190 0 190 -331 0 c-273 0 -333 -2 -345 -14
-11 -12 -14 -51 -14 -190 l0 -176 -40 0 -40 0 0 235 0 235 425 0 425 0 2 -192z
M12046 7512 c-15 -17 -16 -51 -14 -343 l3 -324 148 -3 147 -3 0 196 0 195 235
0 235 0 2 -192 3 -193 530 0 530 0 0 340 0 340 -324 3 c-291 2 -326 1 -343
-14 -16 -15 -18 -34 -18 -151 l0 -133 195 0 195 0 0 -45 0 -45 -235 0 -235 0
-2 193 -3 192 -516 3 c-491 2 -517 1 -533 -16z m946 -284 l3 -193 340 0 340 0
3 148 3 147 -196 0 -195 0 0 45 0 45 235 0 235 0 0 -235 0 -235 -425 0 -425 0
0 190 0 190 -331 0 c-273 0 -333 -2 -345 -14 -11 -12 -14 -51 -14 -190 l0
-176 -40 0 -40 0 0 235 0 235 425 0 425 0 2 -192z M15886 7512 c-15 -17 -16
-51 -14 -343 l3 -324 148 -3 147 -3 0 196 0 195 235 0 235 0 2 -192 3 -193
530 0 530 0 0 340 0 340 -324 3 c-291 2 -326 1 -343 -14 -16 -15 -18 -34 -18
-151 l0 -133 195 0 195 0 0 -45 0 -45 -235 0 -235 0 -2 193 -3 192 -516 3
c-491 2 -517 1 -533 -16z m946 -284 l3 -193 340 0 340 0 3 148 3 147 -196 0
-195 0 0 45 0 45 235 0 235 0 0 -235 0 -235 -425 0 -425 0 0 190 0 190 -331 0
c-273 0 -333 -2 -345 -14 -11 -12 -14 -51 -14 -190 l0 -176 -40 0 -40 0 0 235
0 235 425 0 425 0 2 -192z M19726 7512 c-15 -17 -16 -51 -14 -343 l3 -324 148
-3 147 -3 0 196 0 195 235 0 235 0 2 -192 3 -193 530 0 530 0 0 340 0 340
-324 3 c-291 2 -326 1 -343 -14 -16 -15 -18 -34 -18 -151 l0 -133 195 0 195 0
0 -45 0 -45 -235 0 -235 0 -2 193 -3 192 -516 3 c-491 2 -517 1 -533 -16z
m946 -284 l3 -193 340 0 340 0 3 148 3 147 -196 0 -195 0 0 45 0 45 235 0 235
0 0 -235 0 -235 -425 0 -425 0 0 190 0 190 -331 0 c-273 0 -333 -2 -345 -14
-11 -12 -14 -51 -14 -190 l0 -176 -40 0 -40 0 0 235 0 235 425 0 425 0 2 -192z
M23566 7512 c-15 -17 -16 -51 -14 -343 l3 -324 148 -3 147 -3 0 196 0 195 235
0 235 0 2 -192 3 -193 530 0 530 0 0 340 0 340 -324 3 c-291 2 -326 1 -343
-14 -16 -15 -18 -34 -18 -151 l0 -133 195 0 195 0 0 -45 0 -45 -235 0 -235 0
-2 193 -3 192 -516 3 c-491 2 -517 1 -533 -16z m946 -284 l3 -193 340 0 340 0
3 148 3 147 -196 0 -195 0 0 45 0 45 235 0 235 0 0 -235 0 -235 -425 0 -425 0
0 190 0 190 -331 0 c-273 0 -333 -2 -345 -14 -11 -12 -14 -51 -14 -190 l0
-176 -40 0 -40 0 0 235 0 235 425 0 425 0 2 -192z M27406 7512 c-15 -17 -16
-51 -14 -343 l3 -324 148 -3 147 -3 0 196 0 195 235 0 235 0 2 -192 3 -193
530 0 530 0 0 340 0 340 -324 3 c-291 2 -326 1 -343 -14 -16 -15 -18 -34 -18
-151 l0 -133 195 0 195 0 0 -45 0 -45 -235 0 -235 0 -2 193 -3 192 -516 3
c-491 2 -517 1 -533 -16z m946 -284 l3 -193 340 0 340 0 3 148 3 147 -196 0
-195 0 0 45 0 45 235 0 235 0 0 -235 0 -235 -425 0 -425 0 0 190 0 190 -331 0
c-273 0 -333 -2 -345 -14 -11 -12 -14 -51 -14 -190 l0 -176 -40 0 -40 0 0 235
0 235 425 0 425 0 2 -192z M31246 7512 c-15 -17 -16 -51 -14 -343 l3 -324 148
-3 147 -3 0 196 0 195 235 0 235 0 2 -192 3 -193 530 0 530 0 0 340 0 340
-324 3 c-291 2 -326 1 -343 -14 -16 -15 -18 -34 -18 -151 l0 -133 195 0 195 0
0 -45 0 -45 -235 0 -235 0 -2 193 -3 192 -516 3 c-491 2 -517 1 -533 -16z
m946 -284 l3 -193 340 0 340 0 3 148 3 147 -196 0 -195 0 0 45 0 45 235 0 235
0 0 -235 0 -235 -425 0 -425 0 0 190 0 190 -331 0 c-273 0 -333 -2 -345 -14
-11 -12 -14 -51 -14 -190 l0 -176 -40 0 -40 0 0 235 0 235 425 0 425 0 2 -192z
M35086 7512 c-15 -17 -16 -51 -14 -343 l3 -324 148 -3 147 -3 0 196 0 195 235
0 235 0 2 -192 3 -193 530 0 530 0 0 340 0 340 -324 3 c-291 2 -326 1 -343
-14 -16 -15 -18 -34 -18 -151 l0 -133 195 0 195 0 0 -45 0 -45 -235 0 -235 0
-2 193 -3 192 -516 3 c-491 2 -517 1 -533 -16z m946 -284 l3 -193 340 0 340 0
3 148 3 147 -196 0 -195 0 0 45 0 45 235 0 235 0 0 -235 0 -235 -425 0 -425 0
0 190 0 190 -331 0 c-273 0 -333 -2 -345 -14 -11 -12 -14 -51 -14 -190 l0
-176 -40 0 -40 0 0 235 0 235 425 0 425 0 2 -192z M38926 7512 c-15 -17 -16
-51 -14 -343 l3 -324 148 -3 147 -3 0 196 0 195 235 0 235 0 2 -192 3 -193
530 0 530 0 0 340 0 340 -324 3 c-291 2 -326 1 -343 -14 -16 -15 -18 -34 -18
-151 l0 -133 195 0 195 0 0 -45 0 -45 -235 0 -235 0 -2 193 -3 192 -516 3
c-491 2 -517 1 -533 -16z m946 -284 l3 -193 340 0 340 0 3 148 3 147 -196 0
-195 0 0 45 0 45 235 0 235 0 0 -235 0 -235 -425 0 -425 0 0 190 0 190 -331 0
c-273 0 -333 -2 -345 -14 -11 -12 -14 -51 -14 -190 l0 -176 -40 0 -40 0 0 235
0 235 425 0 425 0 2 -192z M913 7125 c-9 -10 -13 -56 -13 -150 l0 -136 148 3
147 3 0 145 0 145 -135 2 c-107 2 -138 0 -147 -12z m177 -135 l0 -40 -45 0
-45 0 0 40 0 40 45 0 45 0 0 -40z M4753 7125 c-9 -10 -13 -56 -13 -150 l0
-136 148 3 147 3 0 145 0 145 -135 2 c-107 2 -138 0 -147 -12z m177 -135 l0
-40 -45 0 -45 0 0 40 0 40 45 0 45 0 0 -40z M8593 7125 c-9 -10 -13 -56 -13
-150 l0 -136 148 3 147 3 0 145 0 145 -135 2 c-107 2 -138 0 -147 -12z m177
-135 l0 -40 -45 0 -45 0 0 40 0 40 45 0 45 0 0 -40z M12433 7125 c-9 -10 -13
-56 -13 -150 l0 -136 148 3 147 3 0 145 0 145 -135 2 c-107 2 -138 0 -147 -12z
m177 -135 l0 -40 -45 0 -45 0 0 40 0 40 45 0 45 0 0 -40z M16273 7125 c-9 -10
-13 -56 -13 -150 l0 -136 148 3 147 3 0 145 0 145 -135 2 c-107 2 -138 0 -147
-12z m177 -135 l0 -40 -45 0 -45 0 0 40 0 40 45 0 45 0 0 -40z M20113 7125
c-9 -10 -13 -56 -13 -150 l0 -136 148 3 147 3 0 145 0 145 -135 2 c-107 2
-138 0 -147 -12z m177 -135 l0 -40 -45 0 -45 0 0 40 0 40 45 0 45 0 0 -40z
M23953 7125 c-9 -10 -13 -56 -13 -150 l0 -136 148 3 147 3 0 145 0 145 -135 2
c-107 2 -138 0 -147 -12z m177 -135 l0 -40 -45 0 -45 0 0 40 0 40 45 0 45 0 0
-40z M27793 7125 c-9 -10 -13 -56 -13 -150 l0 -136 148 3 147 3 0 145 0 145
-135 2 c-107 2 -138 0 -147 -12z m177 -135 l0 -40 -45 0 -45 0 0 40 0 40 45 0
45 0 0 -40z M31633 7125 c-9 -10 -13 -56 -13 -150 l0 -136 148 3 147 3 0 145
0 145 -135 2 c-107 2 -138 0 -147 -12z m177 -135 l0 -40 -45 0 -45 0 0 40 0
40 45 0 45 0 0 -40z M35473 7125 c-9 -10 -13 -56 -13 -150 l0 -136 148 3 147
3 0 145 0 145 -135 2 c-107 2 -138 0 -147 -12z m177 -135 l0 -40 -45 0 -45 0
0 40 0 40 45 0 45 0 0 -40z M39313 7125 c-9 -10 -13 -56 -13 -150 l0 -136 148
3 147 3 0 145 0 145 -135 2 c-107 2 -138 0 -147 -12z m177 -135 l0 -40 -45 0
-45 0 0 40 0 40 45 0 45 0 0 -40z"/>
</g>
</svg>
