<?xml version="1.0" standalone="no"?>
<!DOCTYPE svg PUBLIC "-//W3C//DTD SVG 20010904//EN"
 "http://www.w3.org/TR/2001/REC-SVG-20010904/DTD/svg10.dtd">
<svg version="1.0" xmlns="http://www.w3.org/2000/svg"
 width="4320.000000pt" height="2592.000000pt" viewBox="0 0 4320.000000 2592.000000"
 preserveAspectRatio="xMidYMid meet">
<metadata>
Created by potrace 1.16, written by Peter Selinger 2001-2019
</metadata>
<g transform="translate(0.000000,2592.000000) scale(0.100000,-0.100000)"
fill="#000000" stroke="none">
<path d="M0 12960 l0 -12960 21600 0 21600 0 0 12960 0 12960 -21600 0 -21600
0 0 -12960z m43020 8580 l0 -4200 -21420 0 -21420 0 0 4200 0 4200 21420 0
21420 0 0 -4200z m0 -8570 l0 -4270 -21420 0 -21420 0 0 4270 0 4270 21420 0
21420 0 0 -4270z m0 -8580 l0 -4210 -21420 0 -21420 0 0 4210 0 4210 21420 0
21420 0 0 -4210z M21622 16894 c-9 -9 -16 -60 -21 -137 -5 -67 -9 -99 -10 -71
-3 107 -78 195 -179 210 -73 11 -373 -5 -388 -21 -17 -17 -18 -82 -2 -334 l12
-194 155 7 c267 11 333 33 379 127 l21 43 -2 -75 -2 -74 195 -12 c107 -6 225
-12 263 -12 l67 -1 0 84 0 84 -137 6 c-153 8 -213 14 -213 24 0 4 74 5 165 3
l165 -3 0 80 0 81 -42 4 c-37 3 -35 4 15 5 l57 2 0 83 0 84 -202 11 c-255 15
-280 15 -296 -4z m-282 -182 c41 -20 80 -74 73 -101 -12 -47 -84 -81 -170 -81
-49 0 -51 3 -55 117 -3 81 -4 80 72 82 25 0 60 -7 80 -17z m583 11 c-13 -2
-35 -2 -50 0 -16 2 -5 4 22 4 28 0 40 -2 28 -4z M22748 16713 c-29 -33 -168
-406 -168 -451 0 -39 2 -42 38 -52 20 -7 57 -10 81 -8 l44 3 36 94 c41 109 33
116 101 -86 40 -119 42 -121 81 -137 22 -9 55 -16 74 -16 28 0 35 -4 35 -20 0
-28 30 -40 99 -40 60 0 61 0 80 38 l20 37 1 -44 c1 -120 137 -243 286 -258
l54 -6 0 -37 c0 -26 7 -43 24 -59 22 -21 32 -23 93 -18 37 3 77 8 89 12 27 9
148 -91 138 -114 -3 -9 -9 -46 -11 -82 -5 -63 -4 -67 22 -87 15 -12 41 -22 56
-22 26 0 29 -3 29 -33 0 -49 25 -67 94 -67 47 0 64 5 88 25 l29 25 27 -33 c55
-65 53 -59 37 -136 -22 -106 -20 -148 11 -188 14 -18 34 -33 45 -33 14 0 19
-7 19 -26 0 -15 9 -42 21 -60 21 -34 21 -34 97 -34 l77 0 43 -75 42 -75 -25
-40 c-28 -44 -34 -119 -13 -165 9 -20 18 -25 50 -25 l38 0 0 -73 c0 -88 21
-173 60 -246 17 -30 30 -67 30 -82 0 -15 4 -39 10 -53 8 -22 16 -26 50 -26 37
0 40 -2 30 -19 -5 -11 -10 -66 -10 -124 0 -111 15 -178 52 -237 13 -22 21 -48
19 -68 -2 -19 0 -55 4 -82 l7 -48 67 -30 68 -30 6 -73 c2 -41 2 -75 -2 -77 -3
-1 -29 -17 -56 -35 l-50 -32 -3 -83 -3 -82 54 0 c52 0 64 6 261 126 l206 126
0 83 c0 56 -4 87 -12 92 -7 4 -82 38 -167 74 l-155 67 55 11 c30 5 93 18 142
27 l87 17 0 46 c0 25 -3 63 -6 84 -6 36 -8 37 -48 37 -22 0 -95 -11 -161 -24
l-119 -24 -32 32 c-21 21 -34 46 -39 74 -12 72 7 84 189 121 l131 27 3 77 3
77 -75 0 -75 0 20 35 c19 31 21 48 17 158 -3 112 -6 128 -34 187 -65 136 -120
173 -261 174 -51 1 -93 2 -93 3 0 1 29 48 65 103 56 86 65 107 65 146 0 25 -7
59 -16 75 l-15 31 -260 -4 c-146 -2 -259 1 -259 6 0 5 5 37 12 72 l11 64 70 0
c67 0 71 1 108 39 l39 39 0 84 c0 105 -10 124 -139 283 -94 114 -95 115 -137
115 -39 0 -52 -8 -136 -78 -51 -43 -114 -94 -139 -115 l-46 -37 43 181 c28
116 44 204 44 244 0 59 -2 65 -29 84 -47 34 -92 27 -256 -39 -82 -33 -150 -60
-152 -60 -2 0 -3 13 -3 28 0 45 -39 75 -92 70 -24 -3 -50 -8 -59 -12 -20 -9
-135 68 -157 105 -21 36 -9 72 32 104 l34 26 51 -25 c66 -34 118 -87 126 -130
8 -42 36 -56 110 -56 l55 0 0 83 c0 99 -19 146 -78 199 -74 67 -135 91 -239
96 -52 2 -105 0 -123 -6 -28 -10 -29 -10 -20 8 5 10 10 44 10 74 0 51 -2 57
-30 71 -35 18 -101 20 -118 3 -9 -9 -12 -3 -12 28 0 34 -4 43 -25 52 -34 16
-113 15 -129 -1 -7 -7 -28 -52 -46 -100 -18 -48 -34 -86 -36 -84 -2 1 -27 72
-57 157 -52 148 -54 154 -88 166 -52 19 -113 17 -131 -3z m2303 -2312 c54 -56
90 -144 72 -176 -9 -15 -14 -6 -33 50 l-22 67 -58 -4 c-57 -4 -89 -22 -91 -50
0 -7 -4 -4 -9 7 -13 31 -11 78 5 99 16 22 65 56 79 56 5 0 31 -22 57 -49z
M20112 16629 c-48 -19 -51 -29 -72 -246 -11 -114 -20 -241 -20 -280 l0 -73 50
0 c28 0 66 6 84 14 33 14 34 16 40 88 l7 74 74 31 73 30 38 -33 c35 -30 46
-33 101 -34 34 0 74 5 88 12 22 10 25 17 25 63 l0 52 -182 157 -182 156 -51
-1 c-27 0 -60 -4 -73 -10z M19639 16396 c-74 -26 -177 -115 -211 -180 -11 -22
-23 -71 -27 -109 l-6 -68 -39 50 c-35 47 -42 51 -79 51 -28 0 -50 -8 -74 -26
-30 -22 -33 -30 -33 -75 0 -49 4 -56 95 -175 84 -109 93 -124 73 -124 -14 -1
-54 -30 -107 -79 l-83 -77 -97 99 c-53 54 -100 105 -104 113 -5 9 -25 14 -54
14 -37 0 -53 -6 -75 -27 -24 -22 -28 -35 -28 -78 0 -46 4 -55 36 -86 20 -18
54 -55 76 -81 l40 -48 -34 0 c-27 0 -37 5 -46 24 -15 34 -50 55 -104 62 -105
15 -158 -21 -289 -190 -63 -80 -69 -93 -69 -135 0 -26 5 -52 12 -59 9 -9 1
-12 -36 -12 -67 0 -96 -33 -96 -106 l0 -52 108 -62 c118 -69 152 -95 152 -120
0 -21 -56 -109 -74 -116 -8 -3 -65 24 -127 60 -96 56 -121 66 -161 66 -63 0
-88 -30 -88 -106 0 -50 2 -55 33 -71 l32 -18 -30 -3 c-56 -5 -75 -12 -110 -44
-45 -39 -55 -57 -110 -215 -29 -81 -45 -144 -45 -174 l0 -47 185 -63 c108 -37
177 -65 164 -67 -37 -6 -47 -25 -74 -143 -34 -150 -45 -192 -50 -187 -2 2 7
51 20 108 14 58 25 130 25 161 l0 56 -37 7 c-62 10 -95 7 -115 -11 -17 -15
-18 -14 -18 24 0 37 -2 41 -31 47 -59 11 -101 7 -118 -13 -25 -28 -103 -374
-99 -436 l3 -50 197 -45 c108 -25 199 -48 203 -51 3 -4 -17 -23 -45 -43 l-51
-37 -34 30 c-37 33 -116 49 -180 37 -47 -9 -100 -57 -119 -109 -15 -41 -36
-264 -36 -379 l0 -56 63 -6 c128 -13 334 -26 405 -26 l73 0 -3 83 -3 82 -45 3
c-25 1 -60 5 -77 7 -32 6 -33 7 -33 55 l0 49 85 61 c46 33 88 66 92 73 4 7 10
50 14 97 4 47 30 180 59 295 34 142 50 225 48 258 -3 42 -1 47 18 47 28 0 44
38 44 109 l0 57 -64 23 -64 23 20 56 c16 43 21 82 22 163 l1 106 32 -14 c19
-7 69 -13 120 -13 77 0 93 3 124 24 41 28 103 116 124 177 9 24 15 77 15 125
l0 84 64 0 64 0 90 119 c97 128 112 162 112 256 1 46 3 56 11 43 8 -14 23 -18
67 -18 l57 0 123 116 c116 110 122 118 122 155 l0 39 58 0 c76 0 92 16 92 90
0 41 -5 59 -21 76 l-22 23 39 -11 c22 -6 75 -8 120 -5 90 5 165 35 233 94 62
52 81 103 81 211 l0 92 -44 0 c-83 0 -126 -28 -126 -82 0 -18 -7 -44 -16 -56
-20 -29 -112 -82 -143 -82 -22 0 -101 67 -101 87 0 18 65 87 109 114 38 24 55
29 111 29 85 0 100 14 100 92 0 54 -1 56 -31 67 -43 15 -186 13 -230 -3z
m-1533 -2032 c-14 -38 -25 -61 -25 -52 -1 20 39 131 45 125 2 -2 -7 -35 -20
-73z m-246 -1169 c0 -72 -2 -85 -16 -85 -15 0 -16 9 -11 76 6 71 12 94 23 94
2 0 4 -38 4 -85z M21541 16244 c-7 -9 -404 -692 -880 -1517 -477 -826 -1107
-1916 -1399 -2423 -470 -814 -532 -926 -532 -962 l0 -42 2860 0 2860 0 0 52
c0 55 140 -191 -2604 4561 l-201 347 -45 0 c-28 -1 -50 -7 -59 -16z m76 -344
l21 -40 -21 -505 c-12 -278 -24 -505 -27 -505 -3 0 -15 227 -27 505 l-21 505
21 40 c12 22 24 40 27 40 3 0 15 -18 27 -40z m-236 -682 c16 -161 28 -304 28
-318 0 -14 -25 103 -54 260 l-53 285 21 37 c11 21 22 36 25 34 2 -3 17 -136
33 -298z m483 252 c13 -23 8 -57 -39 -310 -29 -157 -54 -275 -54 -262 -1 24
44 506 55 581 6 46 9 46 38 -9z m-695 -370 c22 -103 21 -105 -8 -25 -15 44
-26 84 -24 88 9 16 21 -7 32 -63z m845 -64 c-21 -63 -39 -114 -41 -112 -3 3
43 207 53 235 3 10 8 11 15 4 8 -8 0 -45 -27 -127z m-397 -1273 c39 -42 113
-201 119 -258 l6 -50 -41 -17 c-24 -10 -48 -29 -61 -50 l-20 -33 0 51 c0 37
-5 56 -18 67 -15 14 -18 28 -14 72 2 30 1 79 -3 110 -6 50 -9 55 -31 55 -25 0
-54 20 -54 37 0 10 58 41 78 42 7 1 25 -11 39 -26z m-295 -185 c-7 -29 -22
-21 -22 12 0 25 2 29 13 18 8 -7 12 -20 9 -30z m161 -31 c-6 -38 -19 -48 -29
-23 -5 12 26 69 33 62 1 -1 0 -19 -4 -39z m-1243 -291 c-56 -21 -90 -27 -90
-17 0 5 21 13 48 19 66 14 83 13 42 -2z m2780 -7 c25 -14 -20 -9 -60 6 l-35
14 40 -6 c22 -3 47 -9 55 -14z m-2692 -307 c13 -42 47 -124 74 -182 41 -86 50
-114 49 -153 -2 -38 5 -61 30 -105 74 -133 190 -260 364 -397 19 -15 18 -16
-20 -10 -139 23 -370 149 -414 226 -9 16 -19 29 -23 29 -5 0 -8 11 -8 25 0 14
-7 28 -15 31 -8 4 -15 15 -15 26 0 12 -9 35 -20 53 -11 17 -24 63 -30 101 -11
80 -14 434 -2 434 4 0 18 -35 30 -78z m671 -12 c13 -41 44 -118 69 -170 37
-78 45 -104 43 -143 -3 -51 26 -113 99 -212 74 -100 227 -251 310 -307 25 -16
24 -16 -19 -7 -143 31 -299 108 -388 192 -36 34 -127 211 -142 277 -12 53 -15
468 -3 455 4 -6 19 -44 31 -85z m1211 -376 c-6 -28 -26 -84 -45 -124 -29 -58
-35 -83 -35 -135 0 -50 4 -66 18 -75 30 -19 -27 0 -79 26 -94 47 -279 288
-314 409 -10 33 -20 67 -22 75 -3 8 10 -12 29 -45 56 -100 97 -154 123 -161
18 -4 25 -13 25 -30 0 -15 6 -24 15 -24 8 0 15 -8 15 -18 0 -10 15 -33 34 -51
29 -28 39 -32 77 -29 l44 3 3 46 c3 44 0 49 -38 81 -46 40 -52 73 -20 119 34
46 117 227 147 319 l28 85 3 -210 c1 -121 -2 -231 -8 -261z m668 181 c-4 -192
-5 -203 -32 -267 -15 -38 -31 -68 -34 -68 -10 0 -52 43 -52 54 -1 16 -43 61
-64 69 -28 11 -16 57 42 164 46 83 107 230 129 308 8 29 8 28 11 -15 2 -25 2
-135 0 -245z m-2794 251 c-6 -16 -34 -29 -43 -20 -6 6 27 34 41 34 4 0 5 -6 2
-14z m3052 -13 c-8 -8 -36 5 -36 17 0 7 6 7 21 0 11 -7 18 -14 15 -17z m-2244
-559 c9 -23 23 -55 31 -70 l15 -29 -44 4 c-43 3 -44 4 -44 40 0 31 -8 45 -56
91 -30 30 -64 67 -75 82 l-20 28 55 97 c30 54 67 129 83 167 l28 70 6 -220 c4
-167 9 -229 21 -260z m-670 11 c40 -103 99 -213 130 -241 65 -60 189 -134 227
-134 11 0 21 -4 23 -8 2 -4 54 -21 116 -36 84 -21 148 -29 258 -33 l146 -6 -3
61 c-1 34 0 64 3 67 3 3 34 -7 69 -24 132 -62 329 -101 512 -101 l88 0 -2 63
c-3 57 -1 62 19 65 20 3 22 9 22 58 0 45 -3 54 -17 54 -10 0 -67 25 -127 55
-59 30 -121 55 -137 55 -27 0 -29 3 -29 37 0 33 -8 45 -70 105 -39 37 -75 68
-80 68 -24 0 -5 61 63 200 l72 149 42 0 c41 1 42 0 48 -36 11 -63 55 -242 78
-312 37 -111 190 -318 270 -366 81 -47 176 -66 360 -72 l167 -6 0 55 c0 53 0
54 -37 67 -21 7 -73 34 -115 59 l-77 45 16 30 c47 92 55 137 60 336 l6 194 22
-54 c73 -180 191 -352 324 -476 43 -40 63 -52 89 -53 17 0 32 -4 32 -10 0 -5
22 -10 49 -10 l48 0 27 59 c57 128 59 136 66 351 3 113 7 198 8 189 3 -29 103
-222 157 -306 56 -85 208 -253 230 -253 7 0 34 -17 61 -39 92 -73 246 -147
344 -165 30 -5 40 -16 72 -69 l36 -62 -161 -7 c-89 -3 -223 -16 -297 -27 -164
-25 -312 -27 -462 -4 -175 26 -469 23 -618 -7 -130 -26 -210 -29 -560 -16
-205 7 -238 6 -365 -13 -347 -53 -342 -53 -565 -35 -242 19 -348 15 -533 -23
-156 -32 -327 -36 -522 -13 -170 21 -409 19 -514 -3 -46 -10 -85 -17 -87 -15
-4 5 87 162 99 170 6 3 27 9 46 13 97 18 274 123 394 234 34 32 70 60 79 64
56 20 313 420 364 567 6 16 11 -47 15 -185 4 -155 10 -221 21 -250z M17975
12223 c-62 -15 -68 -59 -30 -203 14 -52 30 -112 36 -132 l10 -38 62 0 c101 0
107 4 107 64 0 28 -11 92 -24 141 -14 50 -30 109 -36 133 l-11 42 -47 -1 c-26
-1 -56 -4 -67 -6z M25103 12215 c-17 -19 -83 -271 -83 -317 0 -34 3 -38 33
-43 17 -4 56 -5 86 -3 l54 3 33 125 c18 69 33 150 33 181 1 55 0 57 -30 63
-52 10 -113 6 -126 -9z M24887 11128 c-13 -18 -44 -63 -69 -100 l-45 -68 -124
80 c-105 68 -130 80 -166 80 -36 0 -46 -5 -67 -33 -19 -25 -26 -46 -26 -79 l0
-46 99 -63 c55 -35 99 -65 97 -66 -2 -2 -55 8 -119 22 -165 35 -191 34 -233
-12 -53 -59 -48 -89 45 -305 44 -101 78 -184 77 -185 -1 -1 -26 0 -54 4 l-52
6 0 61 c0 108 -41 145 -161 146 -67 0 -81 -3 -117 -27 -60 -41 -272 -242 -272
-259 0 -8 -9 -14 -20 -14 -27 0 -402 -250 -408 -272 -3 -13 -14 -18 -42 -18
-58 0 -90 -31 -90 -86 0 -25 9 -62 20 -85 48 -94 51 -93 -76 -33 -84 39 -127
54 -159 54 -47 0 -105 -20 -125 -44 -7 -9 -23 -16 -36 -16 -37 0 -407 -111
-426 -128 -10 -8 -18 -25 -18 -37 0 -22 -1 -22 -42 -8 -61 22 -230 12 -294
-17 -66 -28 -131 -84 -155 -132 -18 -35 -20 -55 -17 -143 3 -91 6 -106 30
-143 43 -64 105 -95 204 -100 165 -9 293 34 345 116 l27 43 14 -43 c14 -41 16
-43 60 -46 33 -2 92 11 209 47 90 27 183 55 207 61 42 11 42 11 43 58 0 41 2
44 11 25 9 -19 19 -23 60 -23 27 0 62 7 78 15 27 14 30 20 30 64 0 33 -10 71
-30 115 -16 36 -26 66 -21 66 4 0 56 -22 114 -50 90 -42 115 -50 165 -50 34 0
72 7 90 16 30 14 32 19 31 67 0 42 -12 78 -63 187 l-64 135 32 6 c17 3 48 16
69 29 24 14 42 19 45 13 4 -5 42 -64 85 -131 l79 -122 49 0 c29 0 60 7 74 16
22 14 25 24 25 76 0 54 -4 65 -48 131 -27 40 -61 91 -75 114 l-26 41 50 32
c27 18 53 39 57 46 6 11 36 -16 116 -101 l108 -115 52 0 c70 0 96 26 96 94 0
40 -6 55 -31 83 l-31 36 42 42 c40 41 42 42 88 34 26 -4 81 -8 123 -8 66 -1
78 2 97 22 12 13 22 35 22 50 0 23 4 27 29 27 40 0 61 36 61 101 0 28 -5 69
-11 89 -11 37 -10 40 36 97 l48 58 83 -4 c78 -3 86 -1 104 20 11 13 19 39 20
57 0 24 4 32 18 32 12 0 48 46 110 141 89 136 92 142 92 199 0 50 -3 60 -25
74 -13 9 -42 16 -64 16 -33 0 -44 -5 -64 -32z m-887 -823 c-24 -25 -46 -45
-49 -45 -3 0 15 20 39 45 24 25 46 45 49 45 3 0 -15 -20 -39 -45z m-1096 -862
c6 -20 4 -23 -21 -23 -28 0 -28 0 -24 57 l3 58 18 -35 c10 -19 21 -45 24 -57z
m-711 -23 c27 -22 97 -27 141 -11 22 9 26 7 35 -21 6 -17 11 -33 11 -34 0 -2
-24 -4 -53 -4 -55 0 -63 -6 -90 -59 -18 -37 -110 -66 -159 -52 -39 12 -88 62
-88 90 0 38 50 80 120 102 41 12 56 10 83 -11z m537 -40 c-47 -16 -92 -28
-100 -28 -8 0 23 13 70 28 47 15 92 28 100 28 8 0 -23 -13 -70 -28z M18406
11093 c-132 -16 -214 -30 -223 -38 -20 -20 -16 -83 9 -123 l21 -34 78 4 78 5
46 -69 c25 -37 45 -73 45 -80 0 -7 -9 -26 -20 -43 -25 -37 -27 -115 -4 -150
13 -20 25 -25 55 -25 39 0 39 0 39 -38 0 -55 31 -82 95 -82 40 0 54 5 78 28
l29 27 -21 -55 c-30 -79 -28 -120 8 -154 28 -27 34 -28 93 -23 35 3 74 8 88
12 24 7 24 6 -7 -27 -26 -27 -33 -43 -33 -74 0 -58 30 -84 96 -84 45 0 54 4
89 41 22 22 58 55 80 72 37 29 35 25 -27 -55 -63 -80 -68 -90 -68 -135 l1 -48
164 -122 c164 -122 165 -123 219 -123 70 0 86 20 86 102 0 44 -4 59 -17 67
-14 8 -8 10 29 11 56 0 78 23 78 82 0 38 0 38 40 38 l41 0 -67 -127 c-37 -71
-73 -137 -81 -148 -7 -11 -13 -42 -13 -69 0 -63 16 -75 97 -76 l63 0 25 50 25
50 54 -26 53 -27 18 -96 c10 -53 20 -102 23 -109 8 -23 60 -42 117 -42 52 0
55 -1 55 -25 0 -32 31 -45 104 -45 l54 0 23 57 23 58 9 -35 c19 -78 46 -119
99 -154 81 -53 150 -69 279 -64 l109 3 0 -37 0 -36 63 -7 c96 -10 107 -7 147
53 l35 52 60 -6 c33 -3 67 -10 75 -14 8 -5 24 -37 35 -71 24 -72 32 -76 133
-78 l62 -1 0 59 c0 47 -14 100 -66 253 -37 106 -72 208 -80 226 l-13 32 -76 0
c-48 0 -81 -5 -89 -12 -6 -7 -57 -76 -111 -153 -88 -123 -100 -136 -103 -112
-6 53 -119 79 -157 37 -22 -24 -48 -25 -106 -5 -43 16 -92 54 -110 87 -20 37
44 108 98 108 42 0 122 -49 148 -89 l25 -41 75 0 75 0 0 65 c0 114 -57 183
-184 220 -72 22 -230 20 -281 -4 l-40 -18 3 60 c5 74 -8 87 -86 87 -57 0 -90
-21 -93 -59 -1 -9 -5 10 -9 43 -10 79 -39 106 -214 201 -109 59 -148 75 -181
75 -22 0 -46 -5 -53 -12 -9 -9 -12 -2 -12 33 l0 46 -160 121 c-143 109 -164
122 -200 122 -39 0 -40 1 -40 33 0 24 -9 42 -33 65 -43 42 -79 42 -227 -3 -63
-19 -115 -33 -117 -32 -1 2 15 49 37 105 54 138 55 203 7 250 -28 27 -41 32
-80 32 -45 0 -51 -4 -130 -77 -45 -43 -97 -91 -115 -107 -28 -26 -20 -7 58
133 100 183 110 222 69 287 -20 34 -21 34 -92 33 -40 -1 -166 -12 -281 -26z
m1675 -1562 l-36 -89 -6 51 c-4 29 -10 64 -14 80 -7 25 -5 27 26 27 19 0 41 5
49 10 8 5 16 10 16 10 1 0 -15 -40 -35 -89z"/>
</g>
</svg>
