<svg xmlns="http://www.w3.org/2000/svg" viewBox="0 0 96.0 76.0" width="96.0mm" height="76.0mm" class="map">
<path d="M34.81,72.93 L34.75,71.48 L34.47,70.56 L34.56,69.38 L34.08,69.17 L33.89,68.56 L34.23,67.80 L34.06,62.60 L33.57,61.50 L33.47,60.51 L33.09,60.20 L32.62,59.06 L32.15,58.51 L32.15,57.22 L31.04,54.07 L35.45,49.16 L35.60,49.25 L35.16,48.49 L35.75,47.63 L35.69,46.21 L36.45,45.89 L37.16,44.77 L37.28,44.04 L37.55,43.72 L37.77,43.73 L37.86,42.66 L37.57,42.46 L37.48,42.09 L36.98,42.21 L37.02,41.46 L36.74,41.31 L37.09,39.68 L36.92,39.42 L36.45,39.42 L36.37,39.13 L36.51,38.98 L36.41,38.62 L37.26,38.35 L37.34,38.00 L37.12,37.33 L37.63,37.03 L37.58,36.79 L37.81,36.53 L37.45,36.13 L37.32,34.91 L37.69,33.39 L37.32,32.88 L37.67,32.22 L36.85,30.48 L37.20,30.10 L37.41,29.38 L36.43,29.51 L36.18,29.05 L34.60,28.44 L33.02,28.37 L32.18,27.49 L30.91,27.27 L30.30,26.69 L29.69,26.59 L29.19,26.89 L28.63,26.63 L26.75,26.69 L26.65,24.46 L26.49,23.84 L26.09,23.41 L25.86,22.34 L28.34,21.36 L30.81,20.73 L33.70,19.52 L38.25,17.95 L38.57,18.15 L38.73,18.73 L40.12,20.45 L40.43,19.96 L40.77,20.15 L41.25,19.92 L41.81,19.98 L42.05,19.74 L43.03,19.51 L43.76,20.44 L44.04,22.05 L43.90,22.37 L43.98,23.28 L43.33,24.18 L43.31,24.89 L42.66,25.53 L42.61,25.94 L43.32,26.66 L43.24,27.20 L43.42,27.58 L43.82,27.69 L45.40,29.57 L46.28,29.96 L46.31,30.39 L45.95,30.83 L46.07,31.14 L47.00,31.23 L46.94,29.39 L46.34,28.69 L46.73,28.40 L46.86,27.55 L47.34,26.99 L47.59,26.92 L47.92,27.12 L49.04,26.57 L49.27,23.90 L49.04,22.85 L49.54,21.63 L49.37,21.58 L49.30,20.62 L46.11,16.57 L45.18,15.77 L44.25,15.67 L43.85,14.96 L43.62,12.23 L43.02,10.15 L43.90,8.57 L44.12,7.49 L47.53,7.47 L47.99,7.63 L48.55,7.45 L48.68,7.12 L49.23,6.78 L49.71,6.87 L49.84,7.16 L50.68,7.49 L50.81,8.01 L52.06,7.93 L52.27,8.14 L52.61,8.11 L53.08,7.91 L53.43,7.48 L54.33,7.45 L54.79,7.92 L56.17,8.12 L57.65,7.35 L57.87,6.47 L58.17,6.29 L58.90,6.15 L59.52,6.27 L60.51,6.87 L61.20,6.29 L61.65,6.25 L62.23,5.85 L63.21,5.75 L63.68,5.90 L64.79,5.14 L66.01,4.92 L67.62,3.98 L68.81,3.02 L69.12,3.04 L69.09,3.42 L69.71,3.95 L68.99,4.26 L69.55,4.61 L69.02,5.08 L69.05,5.43 L69.31,5.34 L69.04,6.07 L68.36,6.61 L68.85,6.92 L68.67,8.04 L68.87,8.79 L69.04,8.86 L68.90,9.10 L69.10,9.54 L68.93,10.09 L69.03,10.42 L68.72,10.67 L68.98,10.83 L68.95,11.17 L69.17,11.21 L68.81,11.69 L69.16,11.82 L69.16,12.18 L69.39,12.32 L69.17,12.33 L69.21,12.58 L69.49,12.84 L69.01,13.02 L68.97,13.44 L68.80,13.31 L68.49,13.57 L68.78,13.92 L68.86,13.60 L69.26,13.73 L69.12,14.87 L68.94,15.10 L69.11,15.05 L69.19,15.38 L68.92,16.01 L69.20,16.25 L68.96,16.55 L69.39,18.26 L69.15,18.48 L69.25,18.66 L68.90,18.81 L69.12,19.24 L69.56,18.91 L69.76,19.29 L69.70,19.58 L69.29,19.57 L69.24,20.54 L69.55,19.97 L69.98,19.89 L70.14,20.13 L69.79,20.42 L70.08,20.39 L70.14,21.16 L70.10,21.56 L69.61,21.92 L69.39,21.98 L69.27,21.77 L69.38,22.07 L69.69,22.08 L69.80,22.40 L69.37,22.30 L69.53,22.72 L68.76,22.95 L68.69,23.16 L68.98,23.26 L69.21,23.10 L69.39,23.40 L68.95,24.50 L68.60,24.63 L68.02,25.43 L66.76,26.57 L67.05,26.57 L66.43,27.56 L65.56,27.88 L65.66,28.26 L65.85,28.44 L65.40,28.49 L65.11,28.92 L62.82,30.25 L62.61,30.45 L62.78,30.46 L62.65,30.74 L61.76,30.99 L61.11,31.04 L60.88,30.89 L60.90,31.10 L60.26,31.22 L58.85,31.98 L58.65,31.50 L58.48,31.56 L58.67,31.97 L57.76,32.26 L54.79,33.87 L53.94,35.03 L53.55,34.46 L53.32,34.45 L53.62,35.04 L53.91,35.18 L53.53,35.78 L53.22,35.77 L53.12,35.96 L53.37,35.82 L53.04,36.26 L52.10,37.28 L51.83,37.35 L51.47,37.95 L51.56,38.32 L51.10,38.30 L50.87,37.93 L50.98,38.77 L50.49,38.81 L50.40,38.39 L49.93,38.90 L49.77,38.78 L49.60,39.09 L49.31,39.03 L49.35,39.19 L48.52,39.80 L47.21,41.47 L45.76,42.67 L45.22,42.89 L44.31,41.80 L44.01,41.74 L43.92,41.92 L44.26,41.86 L44.93,42.73 L44.65,43.03 L44.88,43.11 L44.93,44.18 L44.85,44.30 L44.44,44.18 L44.80,44.49 L44.62,45.12 L44.39,45.14 L44.69,45.53 L44.50,45.84 L44.79,45.77 L45.25,46.40 L45.41,46.34 L45.33,46.58 L45.66,46.50 L45.82,46.65 L46.00,47.54 L46.17,47.43 L46.33,47.66 L46.12,47.83 L46.17,48.17 L45.91,48.28 L46.20,48.72 L46.04,48.89 L46.14,49.18 L46.36,48.57 L46.33,49.42 L46.94,50.56 L47.20,52.46 L47.09,53.75 L47.44,54.17 L47.57,53.82 L47.42,53.25 L47.52,52.97 L47.66,53.05 L47.52,52.85 L47.63,52.59 L47.86,52.54 L47.93,53.41 L48.07,52.85 L47.82,55.04 L48.01,56.14 L48.28,56.00 L47.78,57.12 L47.43,59.57 L47.39,59.27 L47.23,59.26 L47.20,60.49 L47.42,60.27 L47.39,59.98 L47.73,60.13 L47.77,59.71 L47.97,59.80 L47.85,61.08 L46.32,63.21 L44.53,64.13 L40.94,65.41 L39.19,66.25 L39.35,66.06 L37.63,67.33 L36.94,68.81 L36.57,69.17 L36.28,69.09 L36.13,69.25 L36.19,69.37 L36.23,69.19 L36.40,69.22 L36.94,70.10 L37.20,70.11 L37.57,70.52 L37.72,70.47 L37.76,69.77 L37.99,69.62 L37.81,72.90 L34.81,72.93Z" fill="#fff" stroke="#000" stroke-width="0.3" stroke-linejoin="round" stroke-linecap="round" fill-rule="evenodd"/>
<circle cx="65.98" cy="28.04" r="0.55" fill="#fff" stroke="#000" stroke-width="0.25"/>
<circle cx="47.70" cy="50.63" r="0.55" fill="#fff" stroke="#000" stroke-width="0.25"/>
<circle cx="37.94" cy="69.35" r="0.55" fill="#fff" stroke="#000" stroke-width="0.25"/>
<circle cx="36.55" cy="69.10" r="1.1" fill="#fff" stroke="#000" stroke-width="0.25"/>
<circle cx="36.55" cy="69.10" r="0.45" fill="#000"/>
<text x="38.55" y="70.10" text-anchor="start" class="capital-label">Maputo</text>
</svg>